<?xml version="1.0" encoding="UTF-8" standalone="no"?>
<!-- Created with Inkscape (http://www.inkscape.org/) -->
<svg xmlns:dc="http://purl.org/dc/elements/1.1/" xmlns:cc="http://creativecommons.org/ns#" xmlns:rdf="http://www.w3.org/1999/02/22-rdf-syntax-ns#" xmlns:svg="http://www.w3.org/2000/svg" xmlns="http://www.w3.org/2000/svg" xmlns:sodipodi="http://sodipodi.sourceforge.net/DTD/sodipodi-0.dtd" xmlns:inkscape="http://www.inkscape.org/namespaces/inkscape" width="744.09448819" height="1052.3622047" id="svg4038" version="1.1" inkscape:version="0.47 r22583" sodipodi:docname="sport2010.svg">
  <defs id="defs4040">
    <inkscape:perspective sodipodi:type="inkscape:persp3d" inkscape:vp_x="0 : 526.18109 : 1" inkscape:vp_y="0 : 1000 : 0" inkscape:vp_z="744.09448 : 526.18109 : 1" inkscape:persp3d-origin="372.04724 : 350.78739 : 1" id="perspective4046"/>
    <inkscape:perspective id="perspective4137" inkscape:persp3d-origin="0.5 : 0.33333333 : 1" inkscape:vp_z="1 : 0.5 : 1" inkscape:vp_y="0 : 1000 : 0" inkscape:vp_x="0 : 0.5 : 1" sodipodi:type="inkscape:persp3d"/>
    <inkscape:perspective id="perspective4702" inkscape:persp3d-origin="0.5 : 0.33333333 : 1" inkscape:vp_z="1 : 0.5 : 1" inkscape:vp_y="0 : 1000 : 0" inkscape:vp_x="0 : 0.5 : 1" sodipodi:type="inkscape:persp3d"/>
    <inkscape:perspective id="perspective4805" inkscape:persp3d-origin="0.5 : 0.33333333 : 1" inkscape:vp_z="1 : 0.5 : 1" inkscape:vp_y="0 : 1000 : 0" inkscape:vp_x="0 : 0.5 : 1" sodipodi:type="inkscape:persp3d"/>
    <inkscape:perspective id="perspective4925" inkscape:persp3d-origin="0.5 : 0.33333333 : 1" inkscape:vp_z="1 : 0.5 : 1" inkscape:vp_y="0 : 1000 : 0" inkscape:vp_x="0 : 0.5 : 1" sodipodi:type="inkscape:persp3d"/>
    <inkscape:perspective id="perspective5070" inkscape:persp3d-origin="0.5 : 0.33333333 : 1" inkscape:vp_z="1 : 0.5 : 1" inkscape:vp_y="0 : 1000 : 0" inkscape:vp_x="0 : 0.5 : 1" sodipodi:type="inkscape:persp3d"/>
    <inkscape:perspective id="perspective5927" inkscape:persp3d-origin="0.5 : 0.33333333 : 1" inkscape:vp_z="1 : 0.5 : 1" inkscape:vp_y="0 : 1000 : 0" inkscape:vp_x="0 : 0.5 : 1" sodipodi:type="inkscape:persp3d"/>
    <inkscape:perspective id="perspective6023" inkscape:persp3d-origin="0.5 : 0.33333333 : 1" inkscape:vp_z="1 : 0.5 : 1" inkscape:vp_y="0 : 1000 : 0" inkscape:vp_x="0 : 0.5 : 1" sodipodi:type="inkscape:persp3d"/>
    <inkscape:perspective id="perspective6117" inkscape:persp3d-origin="0.5 : 0.33333333 : 1" inkscape:vp_z="1 : 0.5 : 1" inkscape:vp_y="0 : 1000 : 0" inkscape:vp_x="0 : 0.5 : 1" sodipodi:type="inkscape:persp3d"/>
    <inkscape:perspective id="perspective6469" inkscape:persp3d-origin="0.5 : 0.33333333 : 1" inkscape:vp_z="1 : 0.5 : 1" inkscape:vp_y="0 : 1000 : 0" inkscape:vp_x="0 : 0.5 : 1" sodipodi:type="inkscape:persp3d"/>
    <inkscape:perspective id="perspective6670" inkscape:persp3d-origin="0.5 : 0.33333333 : 1" inkscape:vp_z="1 : 0.5 : 1" inkscape:vp_y="0 : 1000 : 0" inkscape:vp_x="0 : 0.5 : 1" sodipodi:type="inkscape:persp3d"/>
    <inkscape:perspective id="perspective6893" inkscape:persp3d-origin="0.5 : 0.33333333 : 1" inkscape:vp_z="1 : 0.5 : 1" inkscape:vp_y="0 : 1000 : 0" inkscape:vp_x="0 : 0.5 : 1" sodipodi:type="inkscape:persp3d"/>
    <inkscape:perspective id="perspective7106" inkscape:persp3d-origin="0.5 : 0.33333333 : 1" inkscape:vp_z="1 : 0.5 : 1" inkscape:vp_y="0 : 1000 : 0" inkscape:vp_x="0 : 0.5 : 1" sodipodi:type="inkscape:persp3d"/>
  </defs>
  <sodipodi:namedview id="base" pagecolor="#ffffff" bordercolor="#666666" borderopacity="1.0" inkscape:pageopacity="0.0" inkscape:pageshadow="2" inkscape:zoom="0.7" inkscape:cx="474.60332" inkscape:cy="626.05527" inkscape:document-units="px" inkscape:current-layer="layer1" showgrid="false" inkscape:window-width="1246" inkscape:window-height="1113" inkscape:window-x="662" inkscape:window-y="25" inkscape:window-maximized="0"/>
  <g inkscape:label="Layer 1" inkscape:groupmode="layer" id="layer1">
    <path style="fill:#6699cc;stroke:none" d="m 115.74135,65.565571 c 0,0 2.07335,-3.491953 3.60108,-3.81933 1.52773,-0.327362 4.47407,-1.745977 4.47407,-1.745977 0,0 1.20035,-0.10912 1.20035,-0.654739 0,-0.545618 -0.10912,-4.364941 -0.10912,-4.364941 0,0 -1.20035,-4.583198 -1.52772,-5.674428 -0.32737,-1.091237 -0.32737,-5.347058 -0.10913,-6.438295 0.21825,-1.091237 1.96422,-5.128809 2.7281,-6.220046 0.76385,-1.091238 3.16457,-3.819331 3.92843,-3.819331 0.76389,0 3.05548,-0.76386 4.1467,-0.654739 1.09125,0.10912 5.34708,1.309486 6.4383,1.636856 1.09124,0.327369 3.27371,1.418607 4.58319,2.291595 1.30948,0.872988 3.27371,1.745976 3.60107,2.837214 0.32739,1.091237 1.09125,1.527727 1.09125,2.946334 0,1.418607 0.21826,2.837214 0.43649,3.273712 0.21826,0.436498 0.98212,-0.32737 0.98212,0.32737 0,0.654739 -0.21826,1.527735 -0.32737,2.182474 -0.10912,0.654739 -0.21825,1.855097 -0.43649,2.400716 -0.21826,0.545619 -0.10913,1.200358 0.21824,1.636856 0.32736,0.436498 0.65474,0.763868 0.76386,1.418607 0.10913,0.654747 0.32738,0.654747 -0.4365,1.091237 -0.76386,0.436498 -1.09122,0.763868 -1.09122,0.763868 0,0 0.10913,-0.218249 0.10913,0.76386 0,0.982116 0.1091,0.982116 -0.10913,1.527735 -0.21826,0.545619 -0.43649,0.76386 -0.43649,0.76386 l -0.76389,1.745984 -0.65473,1.09123 c 0,0 1.09123,0.982116 0.4365,1.855105 -0.65475,0.872988 -0.98212,1.745976 -1.41861,1.745976 -0.43649,0 -5.23794,2.073354 -5.23794,2.073354 0,0 3.81933,2.728086 4.47408,3.273705 0.65473,0.545619 2.50983,2.073354 3.05546,3.273712 0.54562,1.200358 1.8551,5.456178 1.74597,6.438295 -0.10913,0.982107 -0.76386,5.019681 -0.76386,5.019681 0,0 -1.30948,2.291593 -1.09124,2.728091 0.21826,0.436498 0.65475,2.837214 0.65475,4.146701 0,1.309478 0,2.182466 -0.10913,3.273704 -0.10913,1.091237 0.76386,1.418607 0.21826,3.273711 -0.54562,1.855098 -0.65475,1.636856 -0.87301,2.400712 -0.21824,0.76387 4.69232,4.69232 4.69232,4.69232 l 9.49377,-2.07334 -10.36676,-18.87839 c 0,0 3.16459,-3.055465 3.38284,-2.618974 0.21824,0.436498 10.80323,16.368544 10.80323,16.368544 l 3.7102,1.418607 3.05548,5.674433 c 0,0 0.43649,4.03757 0.21824,4.69231 -0.21824,0.65475 -2.94633,2.2916 -2.94633,2.2916 l -2.94634,-3.16458 -5.67444,0.87298 -6.65654,3.05547 c 0,0 -9.71199,1.52772 -11.13061,1.52772 -1.41861,0 -3.92844,0 -4.69232,-0.87298 -0.76385,-0.87299 -3.7102,-4.91056 -3.7102,-4.91056 l -0.10913,2.50984 -1.85508,1.52773 c 0,0 -2.18249,2.94634 -1.85511,3.60108 0.32737,0.65474 -0.65474,3.27371 -0.65474,3.27371 0,0 -0.43649,2.72809 -0.54563,3.16458 -0.10913,0.43649 -1.09122,3.16459 -1.09122,3.16459 0,0 -0.65475,1.63685 -0.76388,2.07334 -0.10912,0.4365 0,1.85511 -0.10912,2.83722 -0.10911,0.98211 -1.30948,2.29159 -1.30948,2.29159 0,0 -0.10912,3.05547 0,3.60108 0.10913,0.54562 0.10913,3.60109 0.10913,3.60109 l 8.18426,7.52952 8.18426,9.49376 0.98212,2.72809 3.71021,4.03757 c 0,0 2.07335,2.94635 2.40072,3.49196 0.32737,0.54562 4.1467,4.58319 4.1467,4.58319 0,0 2.40072,1.8551 2.29159,2.94634 -0.10913,1.09124 -0.21826,6.22005 -0.21826,6.22005 l -0.65472,3.27371 1.74597,7.52952 1.8551,7.09304 3.49195,10.03937 5.23794,16.91416 3.27372,4.36498 1.52773,0.21819 2.72809,0.87301 1.52772,1.96422 1.09124,0.65474 3.92846,-0.21827 5.12879,-1.41862 c 0,0 1.63687,-0.5456 1.746,0.10914 0.10911,0.65474 -2.2916,1.85516 -3.1646,1.9643 -0.87299,0.10905 -3.05546,0.65466 -3.05546,0.65466 l -0.65473,1.30955 c 0,0 0.5456,0.10906 1.74598,0.43647 1.20035,0.32733 2.83721,0.65474 2.83721,0.65474 l 3.27369,0.76388 2.94635,-1.74603 2.61896,-0.32733 c 0,0 1.52774,0.65474 1.746,1.09121 0.21823,0.43654 0.32736,2.29162 0.32736,2.29162 l -1.30948,2.40069 -5.23794,4.36498 -3.71021,1.96422 -6.32916,0.5456 -7.42041,-0.21827 -7.52954,1.41861 c 0,0 -3.38282,-1.20034 -3.60107,-1.63681 -0.21824,-0.43654 -0.87299,-4.25584 -0.87299,-4.25584 l -1.30948,-5.7836 0.10913,-2.50982 -6.98391,-18.87838 -4.25583,-10.36672 c 0,0 -4.36494,-5.12881 -4.58319,-5.78355 -0.21824,-0.65475 -1.74598,-5.45618 -1.74598,-6.22004 0,-0.76387 -0.21826,-7.31129 -0.21826,-7.31129 l -1.20035,-5.12881 -4.58319,-4.03757 -6.22006,-2.50984 -5.56528,-3.05547 -8.18428,-5.01968 -5.67443,12.11272 c 0,0 -2.50984,2.18247 -2.94634,2.61896 -0.43649,0.4365 -6.11092,7.31129 -6.11092,7.31129 l -3.710202,5.67442 -4.80144,2.83722 -7.96603,-4.14669 c 0,0 -6.329167,-3.1646 -7.420401,-3.49196 -1.091237,-0.32737 -12.549213,-6.98391 -12.549213,-6.98391 l -7.638654,-5.45619 -8.184271,-2.29159 -9.602879,-0.21825 -11.45798,-1.09124 -8.729891,0 -4.910563,4.03758 -4.583191,-0.54562 c 0,0 -0.218247,-2.83721 0.654742,-3.92845 0.87299,-1.09124 3.273707,-3.92845 4.583192,-5.23794 1.309484,-1.30948 6.110922,-4.58319 6.547418,-4.80144 0.436493,-0.21824 1.964224,-1.63684 4.474067,-2.07334 2.509844,-0.43649 5.565304,-0.65474 6.220047,-0.76387 0.654741,-0.10912 1.964224,-0.65474 3.710202,-1.30948 1.745977,-0.65475 2.400719,-1.09124 4.474069,-1.63685 2.073349,-0.54562 3.382834,-1.09124 3.382834,-1.09124 0,0 2.073348,0.32737 2.400717,1.63685 0.327371,1.30949 1.091238,3.05547 1.091238,3.05547 0,0 0,0.65474 0.327371,1.30948 0.327369,0.65474 2.400718,1.74597 3.710203,2.40072 1.309482,0.65474 2.40072,1.30949 3.382831,1.63685 0.982114,0.32737 8.620767,3.05546 9.05726,3.49196 0.436496,0.43649 6.329172,3.05546 7.311283,3.38283 0.982116,0.32737 10.148495,1.85511 10.148495,1.85511 l 4.037572,1.52772 3.710202,0.76387 c 0,0 0.218249,-5.12882 0.218249,-5.78356 0,-0.65473 0.982109,-6.54741 0.872988,-7.4204 -0.10912,-0.87299 1.091237,-6.32917 1.309486,-6.76566 0.218242,-0.4365 1.745977,-4.03758 1.745977,-4.03758 l 1.855097,-3.16458 c 0,0 -1.964225,-3.92845 -2.291595,-4.47407 -0.32737,-0.54562 -2.073346,-7.20216 -1.636856,-7.63865 0.436498,-0.4365 -0.545619,-3.05547 -0.545619,-3.05547 0,0 0.109129,-2.18247 0.327378,-2.72809 0.218241,-0.54562 3.164583,-6.43829 3.164583,-6.43829 l 3.164584,-5.23793 1.63686,-7.31129 1.09123,-7.52953 0.87299,-5.45618 0.98211,-7.311282 0,-3.710202 1.30949,-3.164583 -1.41861,-1.200366 -4.910561,2.291603 c 0,0 -12.112722,2.073346 -12.76747,1.636848 -0.654739,-0.43649 -1.855097,2.509844 -1.964225,2.946342 -0.109121,0.436491 -5.128805,16.91416 -5.237926,17.45978 -0.109128,0.54561 -0.327369,9.38463 -0.109128,9.82112 0.218249,0.4365 4.692315,6.87479 4.583194,7.42041 -0.109128,0.54562 -1.527735,3.81933 -2.291595,4.47407 -0.763868,0.65474 -5.456175,2.61897 -6.110924,2.18247 -0.65474,-0.43649 -3.055458,-1.96423 -3.273705,-2.40072 -0.218249,-0.43649 -0.109125,-4.1467 0.109122,-5.34705 0.218249,-1.20037 0.982114,-6.11093 0.982114,-6.54742 0,-0.4365 0,-8.07515 0.109124,-8.62077 0.109122,-0.54562 0.654738,-9.27551 0.763866,-9.712 0.109121,-0.4365 1.418607,-10.366746 1.418607,-10.366746 0,0 2.182469,-6.438293 2.618967,-7.093033 0.436491,-0.654739 5.019677,-4.91056 5.456175,-5.019688 0.43649,-0.109121 9.275509,-4.58319 10.366746,-4.47407 1.09123,0.109129 7.093039,-1.200358 7.093039,-1.200358 0,0 2.72808,-5.674427 4.80144,-6.329167 2.07334,-0.654747 10.03936,-1.418607 10.14849,-1.309487 z" id="path4143"/>
    <path style="fill:#816647;stroke:none" d="m 371.70513,34.496607 c -0.50687,-0.0169 -0.63335,1.343925 -0.63335,1.343925 l -1.94636,4.402497 c 0,0 -3.70737,-0.355295 -4.94316,-0.355295 -1.23579,0 -2.64812,0.364117 -3.70736,0.540659 -1.05925,0.176541 -3.35208,0 -3.35208,0 0,0 -2.46937,-0.355288 -3.35208,-0.355288 -0.88271,0 -5.65373,0.525211 -6.88952,0.525211 -1.23579,0 -3.8817,1.584454 -4.58786,1.760996 -0.70617,0.176541 -4.76441,1.414538 -5.82366,1.591079 -1.05925,0.17655 -4.77323,0.540659 -4.77323,0.540659 l -5.99358,0.52521 -6.7196,0 -5.82365,0.169924 -4.58787,0 -6.34886,0.710574 -7.6001,2.301654 -3.522,0 -4.94315,1.050421 -3.18215,1.235793 c 0,0 -2.29063,0.889319 -2.99679,1.065869 -0.70617,0.176534 -4.58787,2.286206 -4.58787,2.286206 l -2.47158,1.59108 -3.89273,1.760995 -3.522,1.776444 -3.53745,3.166711 -2.47157,3.18216 -6.00902,4.062649 -5.11308,1.59108 -1.40571,-2.656949 c 0,0 -2.12732,-4.581242 -2.65694,-5.993568 -0.52962,-1.412335 -2.99679,-3.892734 -2.99679,-3.892734 0,0 -0.71499,-1.94196 -1.42116,-2.471577 -0.70616,-0.529626 -1.05704,-2.467163 -2.11628,-2.996789 -1.05925,-0.529625 0.35529,-1.591079 0.35529,-1.591079 0,0 0.88049,-1.405709 0.88049,-2.641501 0,-1.235785 -2.11408,-1.059243 -2.99678,-1.235785 -0.88271,-0.176542 -4.23699,-0.703964 -4.94316,-0.880498 -0.70616,-0.17655 -3.18215,0.695127 -3.18215,0.695127 l -2.6415,1.235792 c 0,0 -0.8805,1.063658 -0.8805,1.946367 0,0.882701 1.40571,3.707362 1.40571,3.707362 l 2.30165,2.116291 2.11629,1.776443 3.18216,1.235792 1.05042,3.352076 1.94637,5.468365 2.11628,7.059438 3.18216,7.939943 0.8805,6.009027 -1.42116,2.471577 -4.04721,5.298442 c 0,0 -0.53404,2.46496 -0.71057,3.877288 -0.17655,1.41234 0.87608,3.36532 1.40571,4.24803 0.52962,0.88271 3.35207,1.57563 3.35207,1.57563 l 6.7196,3.01223 -0.18536,1.93092 -0.69514,2.82687 c 0,0 -1.42336,2.64591 -1.77644,3.35208 -0.35309,0.70616 -2.99679,3.36752 -2.99679,3.36752 l -1.94636,3.522 1.42115,2.65694 1.761,2.81142 0.8805,2.82687 1.761,1.77644 0.35529,1.40571 0.35528,3.53745 4.23258,1.57563 1.42116,1.59108 2.28621,1.94637 2.82686,2.30165 6.36431,2.47158 6.70416,-3.53745 7.05944,-4.58787 4.23258,-4.58786 c 0,0 0.35308,-9.71198 1.23578,-10.24159 0.88271,-0.52963 2.12292,-1.06146 3.18216,-1.59108 1.05925,-0.52962 3.53744,-2.6415 3.53744,-2.6415 0,0 3.70075,-3.00121 5.11308,-3.70737 1.41233,-0.70616 4.58566,-3.70957 5.46837,-4.06265 0.8827,-0.35309 1.94636,-3.01224 1.94636,-3.01224 0,0 -1.75659,-1.41012 -2.2862,-2.11628 -0.52963,-0.70617 -3.89274,-2.47158 -3.89274,-2.47158 l -3.70737,-0.35529 c 0,0 -4.06486,1.77424 -5.65373,2.65694 -1.58887,0.88271 -3.69855,2.82025 -4.75779,4.23258 -1.05924,1.41232 -2.30165,2.82686 -2.30165,2.82686 l -2.99679,-4.41794 c 0,0 0,-2.29503 1.23579,-2.47157 1.23579,-0.17654 5.65373,-4.75779 5.65373,-4.75779 l 7.77002,-1.77645 17.82625,-0.33984 10.76681,0.52521 13.94896,23.6499 2.6415,7.24481 c 0,0 2.48261,5.82145 3.01224,6.70416 0.52962,0.8827 0.88049,4.41794 0.88049,4.41794 0,0 0.17655,4.94536 0,6.53423 -0.17654,1.58887 -0.17654,4.40251 0,5.63829 0.17655,1.23578 0.34647,3.89715 1.40571,5.8391 1.05925,1.94195 1.58887,3.70516 2.47158,4.58787 0.88271,0.8827 4.95199,1.58445 6.36431,1.76099 1.41234,0.17655 3.52642,-0.88932 4.23258,-1.06587 0.70616,-0.17654 2.82907,-2.82466 3.18215,-4.94315 0.35309,-2.11849 0.69514,-3.34987 0.69514,-4.23257 0,-0.88271 -1.06146,-3.35649 -1.59108,-4.06266 -0.52962,-0.70616 -2.11629,-4.59228 -3.35208,-5.29844 -1.23579,-0.70616 -0.88049,-3.70736 -0.88049,-3.70736 0,0 -0.52521,-2.6393 -0.52521,-3.522 0,-0.8827 -0.71059,-4.94316 -0.71059,-4.94316 l 1.2358,-3.89273 2.30165,0.54066 c 0,0 7.4037,3.87508 8.10986,4.75778 0.70617,0.88271 5.47498,3.89273 6.53423,5.12853 1.05925,1.23578 6.36431,2.11628 6.36431,2.11628 l 9.88631,-0.35529 c 0,0 2.82025,-2.47599 2.99679,-3.18215 0.17654,-0.70617 -3.18216,-4.75779 -3.18216,-4.75779 l -2.2862,-1.42116 c 0,0 -1.77204,-1.58004 -2.30166,-2.2862 -0.52962,-0.70617 -2.11629,-1.94637 -2.11629,-1.94637 l -2.82686,-3.53745 -1.76101,-2.47157 -1.23578,-3.70737 c 0,0 -0.007,-1.75879 0.16992,-2.6415 0.17654,-0.8827 0.18537,-1.94636 0.18537,-1.94636 l -1.77645,-1.40571 -1.57563,1.05042 c 0,0 -0.18537,-2.11409 -0.18537,-2.99679 0,-0.88271 1.23579,-4.75779 1.23579,-4.75779 l 2.11629,-5.8391 5.12852,-9.886316 6.34886,-10.411516 4.23258,-9.005812 6.88952,-18.351464 1.94637,-5.128518 c 0,0 0.16992,-1.580047 0.16992,-2.286206 0,-0.706175 -0.52521,-1.946367 -0.52521,-1.946367 l -1.40571,-2.301662 c 0,0 -2.47599,-1.577835 -3.18215,-1.930919 -0.70617,-0.353084 -3.35208,-1.421156 -3.35208,-1.421156 l -3.35208,-1.235785 -4.60331,0.185364 -4.04721,0.355294 -3.89273,-0.355294 -0.35529,-1.235785 c 0,0 -0.70396,-1.950782 -0.8805,-2.656949 -0.17654,-0.706159 -0.17433,-1.401294 -0.8805,-1.930919 -0.0883,-0.06618 -0.17475,-0.10572 -0.24715,-0.108133 z m 3.66102,26.07514 c 0,0 -1.31052,3.3669 -1.56019,3.429313 -0.24967,0.06244 -2.25468,2.561748 -2.3171,2.811417 -0.0624,0.249669 -3.30511,6.809784 -3.36752,7.059445 -0.0625,0.249669 -1.43535,3.610293 -1.56019,4.04721 -0.12483,0.436916 -0.81871,4.881364 -0.81871,4.881364 l -0.24716,1.297579 c 0,0 -0.86568,3.872894 -0.80326,4.309811 0.0625,0.436916 -1.62197,6.055366 -1.62197,6.055366 0,0 -1.68314,6.872188 -1.74555,7.059448 -0.0624,0.18725 -1.69921,1.74555 -1.69921,1.74555 0,0 -1.74555,4.36846 -1.74555,4.68055 0,0.31208 -1.62197,5.43747 -1.62197,5.43747 0,0 -2.55862,3.36564 -3.12037,3.55289 -0.56175,0.18726 -3.36313,2.61727 -3.80005,3.4911 -0.43692,0.87385 -2.06869,5.49676 -2.19352,5.74642 -0.12484,0.24967 -1.174,0.86506 -1.174,0.86506 0,0 -1.94575,-2.62167 -2.00816,-3.05858 -0.0625,-0.43693 -0.61476,-3.48609 -0.92684,-3.98542 -0.31208,-0.49934 -1.56019,-5.43747 -1.56019,-5.43747 0,0 -1.06272,-4.49268 -1.37481,-4.74234 -0.31208,-0.24967 -0.99968,-3.24143 -1.4366,-3.4911 -0.43692,-0.24967 -1.4984,-3.8155 -1.4984,-3.8155 l 0.80326,-2.30166 c 0,0 2.49871,-1.125147 2.87322,-1.374816 0.3745,-0.249661 3.36752,-2.934998 3.36752,-2.934998 l 1.6992,-1.869129 3.73827,-3.182159 2.99678,-4.309811 4.37161,-5.298445 2.42523,-4.495182 2.68784,-3.691915 3.05858,-3.552894 c 0,0 2.19164,-2.622285 2.37889,-2.996788 0.18726,-0.374496 2.30165,-3.738258 2.30165,-3.738258 l 5.49927,-2.193528 z m -19.3092,5.808205 -0.69513,1.853689 -2.56426,3.444761 c 0,0 -3.62351,4.236987 -4.41795,4.943147 -0.79443,0.706167 -4.49518,4.495182 -4.49518,4.495182 l -3.53744,3.707373 -5.37568,3.537447 -1.23579,-1.683766 -2.30165,-4.495185 c 0,0 -2.11851,-3.277041 -2.47158,-3.630124 -0.35309,-0.353084 -1.14311,-2.826873 -1.14311,-2.826873 l 2.99679,-2.19352 c 0,0 1.59328,-1.156351 1.94637,-1.421156 0.35308,-0.264821 2.46716,-0.966565 2.99678,-1.143107 0.52962,-0.176542 2.73418,-0.615693 3.96998,-0.880498 1.23578,-0.264813 5.65814,-1.414538 6.9822,-1.59108 1.32406,-0.176541 6.61809,-1.674936 7.05944,-1.498394 0.44135,0.176542 2.28621,-0.617896 2.28621,-0.617896 z m -46.34207,13.500994 1.59108,0.355287 c 0,0 1.15193,2.111876 1.32847,2.641501 0.17654,0.529626 0.88271,3.098299 1.23579,3.892737 0.35308,0.79443 0.8805,2.286206 0.8805,2.286206 l -18.35146,-0.617896 2.0236,-4.232573 0.16992,-0.787815 3.89274,-0.447973 3.61467,-0.710582 2.30167,-1.668318 1.31302,-0.710574 z" id="path4708"/>
    <path style="fill:#fb8b00;stroke:none" d="m 532.82493,28.393483 c -5.20191,0 -9.40625,4.38029 -9.40625,9.75 0,5.36971 4.20434,9.71875 9.40625,9.71875 2.60095,0 4.95177,-1.08428 6.65625,-2.84375 l 74.25,57.843747 -2.40625,2.40625 c 0,0 0.70536,5.00892 1.0625,6.4375 0.35714,1.42857 4.46875,4.09375 4.46875,4.09375 0,0 2.85714,2.86607 2.5,3.9375 -0.35715,1.07143 2.32142,5.70536 2.5,7.3125 0.17857,1.60714 7.3125,8.21875 7.3125,8.21875 0,0 6.08035,6.78572 6.4375,7.5 0.35714,0.71429 3.21875,3.03125 3.21875,3.03125 l 5.53125,2.875 3.03125,3.5625 2.15625,4.625 0,3.59375 c 0,1.07142 0.36161,8.57589 0.71875,9.46875 0.35715,0.89286 0.34375,9.09375 0.34375,9.09375 0,0 -1.05357,8.76339 -0.875,9.65625 0.17857,0.89286 -0.5625,3.03125 -0.5625,3.03125 l -1.59375,5.71875 -1.78125,5.53125 -1.625,8.375 -4.28125,5 c 0,0 -6.59821,6.96429 -7.3125,7.5 -0.71428,0.53572 -3.92411,5.36608 -5.53125,6.4375 -1.60715,1.07143 -6.0625,16.59375 -6.0625,16.59375 l -3.9375,7.6875 -3.03125,6.96875 -0.90625,13.75 -1.59375,13.40625 c 0,0 -1.60268,5.33035 -1.78125,6.9375 -0.17857,1.60714 -1.09821,2.87054 -1.8125,4.65625 -0.71428,1.78572 -0.51339,1.24553 -2.65625,4.28125 -2.14285,3.03571 -1.09375,1.07143 -2.34375,2.5 -1.25,1.42857 -0.33929,1.26786 -0.875,2.875 -0.53572,1.60714 0.16518,0.69197 0.34375,1.40625 0.17857,0.71429 -1.42857,1.60715 -3.75,3.75 -2.32143,2.14286 -2.68303,3.39732 -3.21875,5.71875 -0.53571,2.32143 0.91071,3.74107 1.625,4.8125 0.71428,1.07143 4.625,2.51786 5.875,2.875 1.25,0.35714 6.8125,-2.3125 6.8125,-2.3125 0,0 3.01785,-2.52679 3.375,-4.3125 0.35714,-1.78572 1.79018,-5.88839 1.96875,-6.78125 0.17857,-0.89285 1.78125,-3.75 1.78125,-3.75 0,0 1.08035,-3.37946 1.4375,-4.09375 0.35714,-0.71429 1.4375,-5.1875 1.4375,-5.1875 0,0 0.87054,-9.82143 1.40625,-12.5 0.53571,-2.67857 1.78125,-4.8125 1.78125,-4.8125 0,0 3.94197,-5.72322 4.65625,-6.4375 0.71429,-0.71429 1.97322,-3.5625 2.6875,-4.8125 0.71429,-1.25 1.76786,-9.1116 2.125,-10.71875 0.35714,-1.60714 1.96875,-4.8125 1.96875,-4.8125 l 4.28125,-2.875 3.59375,-2.84375 5.53125,-0.375 c 0,0 3.55357,-1.40178 4.625,-1.9375 1.07143,-0.53571 1.44643,-1.08482 2.875,-2.15625 1.42857,-1.07142 1.78125,-1.0625 1.78125,-1.0625 0,0 -0.0134,2.3125 0.34375,3.5625 0.35714,1.25 -0.17857,4.62946 0,5.34375 0.17857,0.71428 -0.16518,0.73214 -0.34375,1.625 -0.17857,0.89286 -2.33036,3.57589 -2.6875,4.46875 -0.35715,0.89285 -2.6875,4.8125 -2.6875,4.8125 0,0 -2.2991,5.34822 -2.65625,7.3125 -0.35714,1.96429 -1.26786,3.58036 -1.625,5.1875 -0.35714,1.60715 -2.125,4.65625 -2.125,4.65625 l -3.03125,3.90625 c 0,0 -1.96875,2.49553 -3.21875,4.28125 -1.25,1.78571 -2.33036,3.57143 -3.9375,6.25 -1.60714,2.67857 -2.67857,5.00447 -3.75,6.96875 -1.07143,1.96429 -1.95535,4.29465 -2.3125,5.1875 -0.35714,0.89286 -4.65625,5.90625 -4.65625,5.90625 0,0 -3.01786,4.2634 -3.375,5.15625 -0.35714,0.89286 -4.11607,5.35268 -5.1875,6.78125 -1.07143,1.42857 -2.66964,2.3259 -3.5625,3.21875 -0.89286,0.89286 -2.87946,1.80804 -3.59375,2.34375 -0.71429,0.53572 -3.3884,2.125 -4.28125,3.375 -0.89286,1.25 -1.06696,2.6875 -0.53125,3.9375 0.53572,1.25 1.60714,3.21875 2.5,4.46875 0.89286,1.25 4.83482,4.11161 5.90625,4.46875 1.07143,0.35714 6.9375,-1.09375 6.9375,-1.09375 0,0 -0.16072,-1.94643 0.375,-3.375 0.53571,-1.42858 2.48661,-4.46429 2.84375,-6.25 0.35714,-1.78572 4.28125,-6.625 4.28125,-6.625 l 4.125,-7.125 c 0,0 10.34821,-10.36161 11.0625,-10.71875 0.71428,-0.35714 11.44643,-13.03571 11.625,-13.75 0.17857,-0.71429 6.9375,-13.21875 6.9375,-13.21875 0,0 5.36607,-7.31696 6.4375,-8.03125 1.07142,-0.71429 10.1875,-13.5625 10.1875,-13.5625 l 1.4375,-1.625 c 0,0 4.81697,-3.91964 5.53125,-4.8125 0.71429,-0.89286 1.78125,-2.6875 1.78125,-2.6875 l 3.03125,-5.53125 c 0,0 4.83036,-8.04018 5.1875,-9.46875 0.35715,-1.42857 3.21875,-13.75 3.21875,-13.75 l 1.0625,-1.25 5.53125,-1.96875 1.0625,-1.59375 c 0,0 -0.15625,-3.76786 -0.15625,-5.375 0,-1.60715 0.51785,-8.54911 -0.375,-10.15625 -0.89286,-1.60715 -1.25892,-13.23214 -1.4375,-14.125 -0.17857,-0.89285 -0.86607,-15.70089 -0.6875,-16.59375 0.17857,-0.89286 -0.1875,-3.21875 -0.1875,-3.21875 0,0 0.89285,-4.62946 1.25,-6.59375 0.35714,-1.96428 0.54018,-3.22321 0.71875,-3.9375 0.17857,-0.71429 0.35268,-4.09821 0.53125,-4.8125 0.17857,-0.71428 0.53125,-3.57143 0.53125,-5 0,-1.42857 -0.004,-3.21875 -0.71875,-5.71875 -0.71429,-2.5 -1.43304,-2.50446 -1.96875,-3.21875 -0.53571,-0.71429 -2.50446,-2.33036 -3.21875,-2.6875 -0.71428,-0.35714 -5.15625,-2.6875 -5.15625,-2.6875 0,0 0.1741,-1.05803 0.53125,-2.84375 0.35714,-1.78571 0.54018,-3.04464 0.71875,-3.9375 0.17857,-0.89285 2.3125,-1.96875 3.5625,-3.21875 1.25,-1.25 1.59375,-2.84375 1.59375,-2.84375 0,0 1.25,-2.32589 1.25,-3.21875 0,-0.89286 0.35715,-2.68303 1.25,-4.46875 0.89286,-1.78571 -0.50893,-4.28125 -0.6875,-5.53125 -0.17857,-1.25 -1.79465,-3.75893 -2.6875,-5.1875 -0.89286,-1.42857 -3.03125,-4.28125 -3.03125,-4.28125 0,0 -3.9375,-2.14285 -5.1875,-2.5 -1.25,-0.35714 -6.78125,-0.34375 -6.78125,-0.34375 l -6.4375,4.28125 c 0,0 -1.96875,4.63393 -1.96875,6.0625 0,1.42857 -2.85268,6.60715 -3.03125,7.5 -0.17858,0.89286 -0.70089,5 -0.34375,6.25 0.35715,1.25 0.15625,3.9375 0.15625,3.9375 l -0.6875,6.25 -1.96875,-0.53125 -4.125,-3.75 -13.90625,-8.75 -12.6875,-7.15625 -10,-8.75 -2.6875,-4.8125 c 0,0 -1.76786,-4.473209 -2.125,-5.187499 -0.35714,-0.71428 -2.34375,1.96875 -2.34375,1.96875 l -3.03125,1.781249 -3.71875,1.75 -74.9375,-58.343747 c 0.97868,-1.53317 1.5625,-3.37034 1.5625,-5.34375 0,-5.36971 -4.23559,-9.75 -9.4375,-9.75 z" id="path4811"/>
    <path style="fill:#6600cc;stroke:none" d="m 486.28772,149.68938 c -0.9375,-0.0317 -1.875,0.8125 -2.8125,0.96875 -1.07143,0.17857 -3.92411,4.82589 -4.28125,5.71875 -0.35714,0.89286 -2.875,4.28125 -2.875,4.28125 0,0 -1.94643,2.52232 -3.375,4.84375 -1.42857,2.32143 -3.59375,3.03125 -3.59375,3.03125 0,0 -1.41964,0.70536 -3.5625,1.0625 -2.14286,0.35715 -6.08036,1.77232 -7.6875,1.59375 -1.60714,-0.17857 -6.9509,2.33483 -9.09375,3.40625 -2.14286,1.07143 -4.8125,3.39732 -6.0625,4.46875 -1.25,1.07143 -3.0625,1.4375 -3.0625,1.4375 0,0 -4.09821,1.60267 -4.8125,1.78125 -0.71428,0.17857 -2.13839,1.95089 -1.78125,2.84375 0.35714,0.89286 -1.4375,1.96875 -1.4375,1.96875 0,0 -2.84375,1.59375 -4.09375,2.84375 -0.30476,0.30476 -0.44155,0.71476 -0.46875,1.15625 l -98.09375,-23.8125 c 0,0 -1.08482,-5.35715 -2.15625,-5 -1.07143,0.35714 -3.03125,1.76339 -3.03125,2.65625 0,0.89285 0.53125,4.84375 0.53125,4.84375 0,0 2.8616,1.23661 3.21875,0.34375 0.35588,-0.8897 99.26773,22.98696 99.96875,23.15625 0.23814,0.65242 0.49709,1.23834 0.5625,1.5 l -0.90625,2.65625 c 0,0 2.68303,0.20089 3.21875,1.09375 0.53571,0.89285 3.40625,3.90625 3.40625,3.90625 l 2.84375,-1.59375 2.6875,-0.1875 c 0,0 3.91518,-2.13392 4.09375,-3.5625 0.17857,-1.42857 2.34375,-4.8125 2.34375,-4.8125 l 3.90625,-0.1875 0.1875,4.46875 c 0,0 -1.41965,1.25 -2.3125,1.25 -0.89286,0 -1.60715,0.88393 -2.5,2.3125 -0.89286,1.42857 -0.53125,2.14286 -0.53125,5 0,2.85714 -0.375,2.51339 -1.625,3.40625 -1.25,0.89285 0.1875,3.03125 0.1875,3.03125 0,0 -1.42411,4.63393 -1.78125,6.0625 -0.35715,1.42857 1.79464,6.97767 2.6875,8.40625 0.89285,1.42857 4.09375,9.8125 4.09375,9.8125 l -1.0625,4.65625 c 0,0 -3.03571,0.35714 -3.75,0 -0.71428,-0.35714 -2.6875,2.84375 -2.6875,2.84375 l -49.65625,-30 -1.0625,1.78125 49.28125,32.15625 27.15625,18.03125 c 0,0 -5.19642,3.92411 -5.375,3.03125 -0.17857,-0.89285 -1.95982,-3.58035 -3.03125,-3.9375 -1.07143,-0.35714 -3.56696,4.82143 -4.28125,5 -0.71428,0.17857 -4.46875,2.5 -4.46875,2.5 l -53.5625,-18.21875 0.53125,4.125 74.8125,26.59375 49.3125,20 c 0,0 15.35714,9.66518 18.75,12.34375 3.39286,2.67857 11.78125,-1.09375 11.78125,-1.09375 0,0 19.10268,6.27232 21.78125,6.09375 2.67857,-0.17857 6.25,-4.65625 6.25,-4.65625 l -3.5625,-0.90625 c 0,0 -8.23215,-1.40178 -10.375,-0.6875 -2.14286,0.71429 -15.1875,-5.71875 -15.1875,-5.71875 l -31.25,-13.21875 -34.625,-25.1875 2.84375,-3.03125 9.84375,-12.15625 11.40625,-11.40625 c 1.25,-1.25 1.27232,-1.08035 2.34375,-2.6875 1.07143,-1.60714 -0.54018,-2.6875 -0.71875,-3.9375 -0.17857,-1.25 -0.89285,-0.70089 -1.25,-1.59375 -0.35714,-0.89286 -0.91071,-2.14732 -1.625,-3.21875 -0.71429,-1.07142 -1.60268,-1.24108 -3.03125,-2.3125 -1.42858,-1.07143 -3.58035,-1.07143 -5.1875,-1.25 -1.60714,-0.17858 -2.5,-0.90625 -2.5,-0.90625 0,0 0.91071,-0.88393 1.625,-2.3125 0.71428,-1.42857 2.48215,-1.78125 3.375,-1.78125 0.89286,0 1.98661,-3.41071 2.34375,-4.125 0.35715,-0.71428 0.54018,-3.01339 0.71875,-3.90625 0.17857,-0.89286 -0.91964,-1.96875 -1.8125,-3.21875 -0.89285,-1.25 -1.76339,-0.89286 -2.65625,-1.25 -0.89285,-0.35715 -3.41071,-1.08482 -5.375,-0.90625 -1.96429,0.17857 -4.28571,-1.05357 -6.25,-0.875 -1.96429,0.17857 -4.10714,-0.91965 -5,-0.5625 -0.89286,0.35714 -2.14732,-2.47768 -0.71875,-3.90625 1.42858,-1.42858 0.74107,-1.27232 1.8125,-2.34375 1.07143,-1.07143 3.37947,-4.10715 4.09375,-5 0.71429,-0.89286 0.54465,0.0179 1.4375,-0.875 0.89286,-0.89286 3.91517,-0.89732 5.34375,-0.71875 1.42857,0.17858 2.875,-0.35714 4.125,0 1.25,0.35715 2.67411,0.17411 4.28125,0.53125 1.60715,0.35714 3.57143,1.25 6.25,2.5 2.67857,1.25 4.81696,0.90179 6.78125,1.4375 1.96428,0.53571 3.04464,0.69643 6.4375,0.875 3.39286,0.17857 4.10268,0.71875 5.53125,0.71875 1.42857,0 5,1.25 5,1.25 l 3.90625,-0.15625 c 0,0 1.72657,-0.11574 3.53125,-0.21875 -0.90604,4.48026 -15.65625,77.34375 -15.65625,77.34375 0,0 -5,-0.71429 -5,0 0,0.71428 0.34821,3.22321 1.0625,3.9375 0.71428,0.71429 2.6875,1.25 2.6875,1.25 l -0.71875,8.03125 1.4375,0.34375 0.71875,-8.375 2.5,-1.4375 c 0,0 0.51785,-2.66071 -0.375,-3.375 -0.85956,-0.68764 14.197,-72.35572 15.34375,-77.8125 0.46221,-0.021 1.23881,-0.0625 1.4375,-0.0625 1.07143,0 1.62053,-0.53572 2.15625,-1.25 0.53571,-0.71429 1.95982,-1.9509 1.78125,-2.84375 -0.17857,-0.89286 1.25,-1.25 1.25,-1.25 0,0 1.97322,-0.37054 1.4375,-2.15625 -0.53571,-1.78572 -0.20089,-0.33928 0.15625,-2.125 0.35715,-1.78571 -0.70089,-1.4375 -1.59375,-2.6875 -0.89286,-1.25 -1.79018,-0.71429 -3.21875,-1.25 -1.42858,-0.53571 -2.50892,-0.19643 -3.9375,-0.375 -1.42857,-0.17857 -1.42857,0.55357 -3.75,0.375 -2.32142,-0.17857 -2.84375,1.4375 -2.84375,1.4375 0,0 -5.70089,-0.54018 -7.84375,-0.71875 -2.14286,-0.17858 -4.46875,-1.78572 -5.71875,-2.5 -1.25,-0.71429 -3.7634,-0.35715 -4.65625,-1.25 -0.89286,-0.89286 -2.66518,-1.78572 -2.84375,-2.5 -0.17857,-0.71429 -9.66071,-4.64732 -10.375,-5.71875 -0.71429,-1.07143 -1.77232,-0.90179 -2.84375,-1.4375 -1.07143,-0.53572 -5.88839,-1.25893 -6.78125,-1.4375 -0.89285,-0.17857 -1.25893,0.375 -1.4375,-0.875 -0.17857,-1.25 0.37053,-1.625 0.90625,-2.875 0.53571,-1.25 1.24107,-1.78125 2.3125,-3.03125 1.07143,-1.25 0.54464,-2.29911 1.4375,-3.90625 0.89286,-1.60714 0.16518,-1.99107 0.34375,-4.3125 0.17857,-2.32143 -0.36161,-1.78125 -0.71875,-4.28125 -0.35715,-2.5 -1.60715,-1.79018 -2.5,-3.21875 -0.89286,-1.42857 -2.13839,-1.60715 -4.28125,-2.5 -2.14286,-0.89286 -3.02232,-1.04911 -4.09375,-1.40625 -0.13393,-0.0446 -0.27232,-0.0892 -0.40625,-0.0937 z m -13.53125,97.0625 6.96875,0.53125 3.21875,2.5 -6.96875,4.46875 -3.21875,-7.5 z m 26.4375,41.40625 8.03125,5.71875 -9.125,-3.5625 1.09375,-2.15625 z m 39.09375,21.4375 c 0.71429,0 7.5,3.40625 7.5,3.40625 l -1.4375,1.59375 -6.0625,-5 z" id="path4931"/>
    <path style="fill:#fdca01;stroke:none" d="m 83.813188,248.28361 c -2.495679,-0.0173 -9.914849,2.89476 -11.965319,3.12259 -2.2626,0.25136 -15.838413,6.53673 -15.838413,6.53673 l -4.775242,1.76157 c 0,0 -2.263973,0.24932 -5.280768,1.75771 -3.016787,1.50839 -1.757661,1.25989 -1.757661,1.25989 l -1.007155,2.51203 -1.508789,0 c 0,0 -7.541618,5.78167 -8.547219,7.79286 -1.005594,2.01118 -3.265479,5.53023 -4.522478,7.79278 -1.256999,2.26262 -1.760588,4.52818 -3.017579,6.28794 -1.256999,1.75982 -3.520582,7.03613 -3.771981,8.04173 l 1.104376,2.18147 4.798574,3.73315 c 0,0 5.334652,1.42378 5.867947,2.1348 0.533302,0.71109 12.61862,9.95495 12.61862,9.95495 l 17.778837,8.35274 5.156321,3.55812 8.88553,5.33136 c 0,0 -9.77658,3.37697 -11.732,4.26582 -1.95544,0.88885 -6.400144,6.75506 -6.933439,7.46615 -0.533302,0.7111 -8.177796,8.17778 -8.177796,8.17778 l -5.510197,2.13487 -9.243284,3.02146 -0.88661,-1.60206 -4.090843,0.89044 -5.331311,2.48871 -2.134861,3.91197 -1.598233,2.48879 c 0,0 0.888835,2.13095 0,2.13095 -0.888829,0 -1.42324,2.48872 -1.42324,2.48872 l 2.488729,8.17778 5.867947,15.29009 c 0,0 2.133194,4.79968 2.488726,6.22187 0.355533,1.42211 7.819488,8.3544 8.352783,9.24325 0.533302,0.88885 7.466179,3.55419 7.466179,3.55419 l 4.977453,-3.55419 -1.244367,-4.97744 -1.244359,-4.62358 c 0,0 3.734753,1.77875 4.623588,1.42324 0.888827,-0.35551 1.419347,-3.73308 1.419347,-3.73308 l -4.086953,-7.99897 -2.309848,-7.82393 0.711623,-4.79855 -2.134861,-0.71162 4.444709,-5.68906 c 0,0 4.087511,-3.73255 4.798575,-4.26582 0.711065,-0.53334 8.177793,-2.13102 8.177793,-2.13102 l 20.975299,-1.42324 4.09084,16.5306 6.933425,18.66546 0.53274,4.44471 c 0,0 -3.55532,6.40121 -3.73308,7.1123 -0.17777,0.7111 1.24435,4.97744 1.24435,4.97744 l 1.59824,3.90812 -2.30985,2.13487 c 0,0 -3.022025,2.66594 -3.733085,3.02145 -0.71107,0.35551 -2.6676,1.06548 -2.6676,1.06548 l 0.71161,1.78101 c 0,0 3.554765,0 4.265825,-0.35777 0.71107,-0.35551 3.02147,0.17889 3.02147,0.17889 0,0 2.49096,0.35664 4.090847,0.17888 1.59989,-0.17783 6.57568,-6.57957 6.57568,-6.57957 l 22.04466,7.9989 3.90808,1.95598 c 0,0 3.02536,-3.37697 3.02536,-4.26582 0,-0.88885 -0.53663,-2.48871 -0.53663,-2.48871 l -22.04078,-8.53171 -3.55421,-14.22069 c 0,0 -5.15855,-15.46566 -5.51408,-16.17675 -0.35553,-0.71102 -1.77711,-11.73589 -1.77711,-11.73589 l -1.59823,-11.55317 2.13097,-0.35385 8.35668,-3.73308 4.4447,-5.51409 c 0,0 1.42047,-5.15406 1.59824,-6.04291 0.17776,-0.88885 -2.8426,-6.57565 -2.8426,-6.57565 l -4.4447,-9.06829 -0.71163,-3.55427 -4.26583,-6.40068 c 0,0 2.31041,-3.90865 3.02147,-4.61967 0.71107,-0.71109 4.09085,-5.68906 4.09085,-5.68906 l 4.26583,0.88659 11.73201,-9.95488 7.10842,3.0253 1.95598,12.26479 3.73309,20.08864 0.35775,5.33136 -0.17887,5.15633 2.48872,7.28727 4.08695,18.13273 1.24436,17.77496 -1.24436,3.02145 c 0,0 0.17999,3.73361 0.35776,4.4447 0.17776,0.71102 1.24381,3.73474 1.77711,4.62359 0.53329,0.88885 2.30984,2.48872 2.30984,2.48872 l -2.30984,3.02146 c 0,0 -2.84537,2.84317 -2.66761,3.55419 0.17777,0.71109 3.5581,0.71162 3.5581,0.71162 0,0 3.90919,-3.20087 4.08696,-3.91196 0.17776,-0.71102 2.6676,-0.88659 2.6676,-0.88659 l 1.95598,1.42325 4.44082,-0.35778 7.64505,-3.20034 c 0,0 -0.17665,-0.88606 -1.06548,-1.41932 -0.88883,-0.53334 -1.77711,0.17496 -1.77711,0.17496 l -0.35775,-1.06547 c 0,0 -1.77488,0.17888 -2.66371,0.17888 -0.88884,0 -4.09029,-1.06607 -4.62359,-1.77709 -0.5333,-0.7111 -2.31096,-8.17838 -2.48873,-8.8894 -0.17776,-0.7111 0.35387,-15.46513 0.35387,-15.46513 l 0.71162,-20.62145 c 0,0 -1.06382,-11.37812 -1.41935,-12.62248 -0.35553,-1.24436 -4.08918,-7.11118 -4.44471,-8.17778 -0.35553,-1.06661 -1.42324,-7.10846 -1.42324,-7.10846 l -0.32275,-11.31206 3.01757,-1.25597 3.01369,-3.772 3.27035,-0.24887 3.77197,-0.50551 1.75767,2.51594 c 0,0 4.0224,-0.75596 5.028,-1.76156 1.00559,-1.00559 5.53236,-9.55261 6.03516,-12.82082 0.50279,-3.26822 0.2514,-8.04384 0,-11.31206 -0.2514,-3.26814 -1.51016,-6.03303 -1.76155,-7.79278 -0.2514,-1.75983 -8.79921,-7.29044 -10.8104,-9.30163 -2.0112,-2.01118 -9.80501,-1.00461 -11.5648,-1.25605 -1.7598,-0.25136 -5.5312,2.26225 -6.5368,3.5192 -1.00559,1.25703 -5.27687,3.26649 -5.27687,3.26649 l -2.51595,-5.02805 c -0.5028,-1.00559 -2.26086,-3.76958 -3.26645,-4.77517 -1.0056,-1.00567 -7.29002,-4.27517 -7.79283,-5.28084 -0.50279,-1.00559 -12.82082,-4.77517 -12.82082,-4.77517 l -17.098317,-2.76481 c 0,0 -13.070095,-1.26013 -14.578485,-2.01436 -0.14141,-0.0709 -0.34846,-0.10317 -0.60663,-0.10498 z m 8.97497,53.84977 -1.24437,3.55427 -1.78099,-3.02153 3.02536,-0.53274 z" id="path5076"/>
    <path style="fill:#f0a513;stroke:none" d="m 530.79283,363.56016 -6.44313,6.07264 -4.22024,-0.74096 c 0,0 -0.93196,5.71367 -0.56377,4.97731 0.36817,-0.73635 2.40006,-0.56377 2.40006,-0.56377 l -14.72254,9.76133 -7.73174,5.52498 -4.23636,2.94773 -0.19329,8.10222 -2.57725,5.1545 2.40006,8.64989 4.96121,5.70217 3.5115,5.52497 4.59072,4.96121 2.40007,4.05917 9.56803,26.69063 -0.17718,4.78402 c 0,0 -0.002,5.88855 0.91814,6.07264 0.92045,0.1841 3.13182,3.67948 2.94773,4.78402 -0.18409,1.10453 -0.19329,9.21367 -0.19329,9.21367 l 4.05917,7.90893 2.38395,6.63642 9.02037,7.36126 c 0,0 6.99539,2.38396 7.73175,2.38396 0.73636,0 3.13412,0.005 3.31821,0.74096 0.18409,0.73635 0.91814,4.96581 0.91814,5.70216 0,0.73636 1.8501,4.60454 1.48192,5.52498 -0.36818,0.92045 -1.28862,6.44312 -1.28862,6.44312 l -14.54535,2.20677 -11.79092,0.93425 -1.46581,2.01348 -1.83629,-0.37048 c 0,0 1.09073,-2.76134 0.35437,-2.57725 -0.73635,0.18409 -8.4612,-0.90664 -9.19755,-0.35437 -0.73636,0.55227 -4.78402,2.93162 -4.78402,2.93162 l -0.54767,4.05917 2.38396,7.73174 c 0,0 3.87047,3.30901 4.60683,3.12492 0.73636,-0.18409 3.12492,0 3.12492,0 0,0 0.17949,3.309 0.54766,4.41354 0.36818,1.10454 1.11144,3.68639 2.40006,4.60683 1.28863,0.92044 10.309,2.57725 10.309,2.57725 l 7.73175,-0.74096 c 0,0 2.03188,-2.01808 1.11144,-2.75443 -0.92045,-0.73637 -2.77055,-2.57725 -2.77055,-2.57725 l 6.63642,0.54766 c 0,0 -1.66601,2.20908 -0.19329,2.57725 1.47271,0.36818 8.84318,2.57725 8.84318,2.57725 l 5.52498,-1.46581 8.82708,1.28862 c 0,0 -1.27943,-1.47731 0.19329,-2.02958 1.47271,-0.55227 2.75674,0.005 4.41354,0.74096 1.6568,0.73636 1.6522,-0.92275 3.12491,-0.37048 1.47272,0.55226 4.41354,0.54767 4.41354,0.54767 0,0 5.71828,0.19329 7.0069,0.19329 1.28862,0 14.35206,-0.91815 14.35206,-0.91815 l 3.49539,-3.86587 2.20677,-5.1545 -1.09533,-1.11144 -0.91815,-4.04306 -2.40006,-1.6591 -2.38396,-2.94773 -6.26593,-1.83629 -5.89546,-1.48192 c 0,0 -1.83629,-0.36818 -1.83629,-1.28862 0,-0.92044 1.11144,-6.07264 1.11144,-6.07264 l 0.54766,-8.10223 -1.28862,-8.27941 -1.6591,-3.4954 4.60683,-8.4727 c 0,0 3.5,-7.36127 2.94773,-8.6499 -0.55227,-1.28862 0.35437,-5.89545 0.35437,-5.89545 l 1.28862,-9.39085 c 0,0 -2.93162,-6.8021 -2.93162,-7.53846 0,-0.73636 -2.22058,-2.02268 -3.14102,-2.20677 -0.92045,-0.18408 -7.73175,0.17719 -7.73175,0.17719 0,0 -4.03845,1.6499 -4.59072,2.75443 -0.55227,1.10454 -3.5069,4.78863 -4.05917,5.52498 -0.55226,0.73636 -1.83629,0 -1.83629,0 l -0.74096,-2.57725 3.12492,-3.12491 c 0,0 -0.90664,-5.70446 -1.643,-6.07265 -0.73636,-0.36818 -2.94773,-7.18408 -2.94773,-7.18408 l -0.91814,-9.02037 -0.56378,-5.89546 c 0,0 1.47042,-2.93622 2.20677,-3.67258 0.73636,-0.73635 0.37048,-2.40006 0.37048,-2.40006 l 3.31821,-2.01347 1.28863,-7.73175 -1.46582,-4.60683 -1.6591,-2.77055 -4.05917,-1.64299 -4.78401,-0.37048 -3.86588,0 1.28863,-2.40007 0.37048,-2.20677 1.11143,-2.02958 1.28863,-3.49539 2.20677,-1.09533 0.54766,-1.65911 c 0,0 -1.83399,-3.12952 -1.46581,-3.86587 0.36818,-0.73636 0.72485,-2.94773 0.72485,-2.94773 l 8.10223,-0.37048 -6.24983,-4.78402 0,-2.77054 46.19719,12.88624 12.14529,2.57725 10.67947,0 c 0,0 2.95004,-1.46351 3.31821,-2.38395 0.36818,-0.92045 1.28863,-6.99079 1.28863,-6.99079 l -1.65911,-2.22288 -73.82208,-16.01116 -2.57724,1.83629 -4.23636,0.1933 c 0,0 -0.18409,-1.29323 0,-2.02959 0.1841,-0.73635 -3.12491,-4.60683 -3.12491,-4.60683 l -2.57725,0 -2.02958,-2.38396 -2.20677,2.02959 -1.65911,-1.48192 -1.64299,-1.46581 -2.57725,-1.11144 -2.57725,-0.54766 -1.8524,-1.65911 -2.38396,0.37048 -1.85239,-0.54766 z m 0.56377,17.10649 c 0.73636,0 1.46581,1.11143 1.46581,1.11143 0,0 -0.91354,2.02729 -1.46581,2.94773 -0.55227,0.92045 0.37048,4.78862 0.37048,5.52498 0,0.73636 -1.28863,6.07264 -1.28863,6.07264 l 2.20677,1.09533 1.46581,3.31821 -0.37048,4.97732 -4.04305,4.41353 -4.23636,0.91815 -6.62031,-1.83629 -5.71827,-4.23635 -4.59072,-6.99079 1.83629,-2.20677 6.62031,-5.52498 c 0,0 6.07724,-4.42734 6.8136,-5.34779 0.73636,-0.92044 3.4977,-2.21137 3.86587,-2.94773 0.36818,-0.73636 2.95233,-1.28862 3.68869,-1.28862 z" id="path5933"/>
    <path style="fill:#336699;stroke:none" d="m 197.07168,512.12453 -1.02137,5.92391 3.47264,1.22564 1.02137,2.85983 -1.83846,2.04273 c 0,0 -2.65555,3.06409 -2.45127,4.49401 0.20427,1.42991 3.06409,16.54611 3.06409,16.54611 l 1.42991,5.92392 3.26837,2.04273 4.69828,4.69829 2.65556,6.53673 2.65554,8.98802 c 0,0 -0.81709,2.04273 0.40854,2.85983 1.22564,0.81709 -12.25637,20.01876 -12.25637,20.01876 l -6.53674,8.57947 -9.60084,13.48202 c 0,0 -1.42991,4.28973 -1.02136,5.10683 0.40854,0.81709 2.45127,7.35383 2.45127,7.35383 l 0.81709,15.52475 1.42991,22.26577 -13.07347,11.03074 c 0,0 -6.33247,1.42991 -5.51538,2.85983 0.8171,1.42991 5.10684,2.65555 6.94529,2.45128 1.83846,-0.20428 18.18031,-2.45128 18.18031,-2.45128 l 4.28973,-0.20428 c 0,0 5.51537,-0.40854 5.51537,-1.22564 0,-0.81709 -0.61282,-6.53673 -0.61282,-6.53673 0,0 -3.88118,-5.51538 -3.88118,-6.33247 0,-0.81709 -1.22564,-12.05211 -0.61282,-13.48202 0.61282,-1.42992 1.02136,-5.71965 1.02136,-5.71965 0,0 2.04273,-0.81709 1.83846,-1.63418 -0.20427,-0.8171 -0.20427,-4.08547 -0.61282,-4.90256 -0.40854,-0.81709 -1.02136,-7.5581 -1.02136,-8.3752 0,-0.81709 0.20427,-3.67691 0.20427,-4.494 0,-0.81709 4.90255,-7.14956 5.51537,-7.96665 0.61282,-0.81709 8.988,-8.78374 8.988,-8.78374 l 8.3752,-7.55811 2.85983,-1.42991 -0.40855,9.39656 -0.61282,9.39656 c 0,0 -0.40855,8.57947 -0.40855,9.80511 0,1.22564 1.22564,6.12819 2.65556,6.33247 1.42991,0.20427 17.56748,10.82647 17.56748,10.82647 l 6.74101,5.92392 12.25639,12.8692 -1.42991,6.74102 -6.94529,8.78374 c 0,0 -3.67692,2.04273 -1.63418,2.45128 2.04273,0.40854 11.84784,-0.61282 12.66493,-0.8171 0.81709,-0.20427 8.57947,-1.02136 8.57947,-1.02136 0,0 4.08546,-4.90256 4.69828,-6.33247 0.61282,-1.42991 1.83846,-7.14956 1.83846,-7.14956 0,0 -3.26838,-3.06409 -4.49401,-4.08546 -1.22564,-1.02136 -6.1282,-5.3111 -6.74102,-6.12819 -0.61282,-0.81709 -2.65554,-4.90255 -3.47264,-5.71965 -0.81709,-0.81709 -4.90255,-6.94528 -4.90255,-6.94528 l -4.28973,-7.14956 -13.27776,-12.8692 5.10683,-21.65295 3.67692,-10.6222 1.83846,-11.03074 0.81709,-10.41793 -3.0641,-4.69829 c 0,0 -0.20427,-3.88118 -0.40855,-4.69828 -0.20427,-0.81709 -0.40854,-3.67691 -0.40854,-3.67691 0,0 5.71965,2.247 6.53674,3.06409 0.81709,0.8171 6.94528,0.8171 6.94528,0.8171 l 0.61282,-3.47265 -1.83845,-7.14956 -2.85983,-6.33246 -2.45128,-2.247 0.40855,-2.45128 -4.28973,-2.65555 -2.24701,-3.88119 -1.63419,-1.02137 0.20428,-4.28973 -2.04273,-3.88119 6.94529,-16.54612 1.02136,-3.88119 -2.85982,-3.06409 -3.47265,0.61282 -2.04273,1.83845 c 0,0 -1.22564,5.10683 -1.42991,5.92393 -0.20427,0.81709 -1.63418,13.07347 -1.63418,13.07347 l -5.92392,-2.04273 -8.17093,-2.85982 -7.35383,-2.24701 -3.67691,-1.83846 c 0,0 0,-1.42991 0.61282,-2.247 0.61281,-0.81709 2.45127,-4.08546 2.65554,-4.90255 0.20428,-0.8171 -0.61282,-6.53674 -0.61282,-6.53674 0,0 -2.45127,-7.76238 -3.26836,-8.17092 -0.81709,-0.40855 -6.74102,-3.47265 -8.78373,-3.67692 -2.04273,-0.20427 -8.3752,-1.02137 -10.41793,0.20427 -2.04273,1.22564 -4.90256,2.85983 -5.3111,3.88119 -0.40855,1.02137 -2.45128,3.0641 -2.45128,3.88119 0,0.81709 0.20427,2.24701 0.20427,2.24701 l -4.08546,1.63418 -4.49401,1.42991 -1.42991,0.40855 c 0,0 2.04273,2.04273 3.67692,3.26836 1.63418,1.22564 5.71965,2.04274 5.71965,2.04274 l 2.247,1.83846 z" id="path6039"/>
    <path style="fill:#aaccee;stroke:none" d="m 386.10235,849.37414 c -1.9969,0 -10.49309,2.74574 -11.99076,3.49458 -1.49768,0.74883 -5.24809,3.98755 -6.24655,5.98445 -0.99845,1.9969 -0.98909,3.51018 -1.98754,4.25902 -0.99845,0.74883 -3.49457,3.73482 -3.49457,3.73482 l 1.50703,1.50704 2.73014,8.23409 1.74728,12.231 -0.74259,7.4915 1.24494,2.48988 -5.48211,4.23717 -10.48372,7.25124 -8.49619,4.23717 -3.73482,1.24494 -20.72719,-13.7162 -7.2294,-3.75667 -2.00938,-4.97976 2.75198,-7.4915 1.00469,-9.23877 -1.74729,-4.23718 c 0,0 -2.24651,-1.51327 -1.74729,-2.51172 0.49923,-0.99845 -0.50234,-2.24963 -0.50234,-2.24963 l -3.49458,-2.48989 c 0,0 -11.97827,-0.24025 -13.47595,1.50704 -1.49767,1.74729 -4.25277,2.24339 -6.74889,4.73951 -2.49612,2.49613 -6.48992,3.23873 -6.98915,5.98446 -0.49922,2.74574 -1.74105,7.75047 -0.7426,10.74582 0.99845,2.99535 1.74417,7.96887 6.48681,10.96422 4.74263,2.99535 10.48372,4.00004 12.231,4.49927 1.74729,0.49922 5.24186,2.48988 5.24186,2.48988 0,0 3.4977,3.2512 3.99692,4.49926 0.49922,1.24806 20.22485,14.24039 20.22485,14.24039 l 8.97668,6.72705 14.7209,-1.24494 5.50395,5.74421 4.23717,1.74728 11.72866,-5.0016 10.74582,-1.4852 14.4588,13.7162 4.25901,4.73952 -15.22324,-1.48519 -5.24186,-1.50704 c 0,0 -4.75824,-4.48366 -6.0063,-3.73482 -1.24806,0.74883 -6.24031,4.49302 -6.98915,3.49457 -0.74883,-0.99845 -3.49769,-2.74885 -5.7442,-2.24963 -2.24651,0.49923 -5.98446,5.00161 -5.98446,5.00161 l -0.50234,8.73643 c 0,0 1.24806,10.96735 3.49457,13.21386 2.24652,2.24651 10.74893,10.23411 14.74273,13.97829 3.9938,3.74419 13.47595,13.97827 13.47595,15.72553 0,1.7473 -8.49306,7.504 -9.74112,7.7536 -1.24806,0.2496 -10.97358,1.2293 -10.72397,2.2278 0.24961,0.9984 7.71926,6.2527 9.21693,5.5039 1.49768,-0.7488 22.71473,1.2449 22.71473,1.2449 l 13.2357,-6.7488 7.73175,-4.9798 c 0,0 -6.48681,-8.00006 -8.23409,-8.99846 -1.74729,-0.9984 -2.7395,-2.986 -0.7426,-3.7348 1.9969,-0.74887 4.24965,-4.2372 4.49926,-5.98449 0.24962,-1.74729 9.47903,0.24025 9.47903,0.24025 l 5.00161,2.99223 c 0,0 5.2325,6.49301 5.48211,7.49151 0.24962,0.9984 5.00161,9.47896 5.00161,9.47896 l 4.47743,9.2387 c 0,0 9.48527,2.4962 10.48372,1.7473 0.99845,-0.7488 3.51017,-2 6.0063,-3.9968 2.49612,-1.9969 5.2325,-3.9751 3.73482,-5.7224 -1.49768,-1.7473 -3.74107,-4.2434 -4.73951,-5.2419 -0.99845,-0.9984 -0.74884,-2.0093 0,-3.75656 0.74883,-1.7473 1.24494,-5.7442 1.24494,-5.7442 0,0 -3.49146,-4.24345 -4.73952,-5.24189 -1.24806,-0.99845 -3.48833,-1.74729 -2.48988,-3.49458 0.99845,-1.74729 2.73949,-5.7442 4.23717,-7.49149 1.49767,-1.74729 5.48211,-8.98605 5.48211,-10.48372 0,-1.49768 -0.73324,-6.4712 -0.98285,-7.46965 -0.24961,-0.99845 -0.009,-5.9907 0.24025,-6.98915 0.24961,-0.99845 1.98754,-1.5164 0.24026,-4.76136 -1.74729,-3.24496 -3.47898,-5.97821 -4.47743,-6.72705 -0.99845,-0.74884 -2.51172,-3.00471 -4.25901,-5.00161 -1.74728,-1.9969 -3.73795,-2.73638 -4.23717,-3.73483 -0.49923,-0.99844 -5.24186,-7.24811 -5.24186,-8.49618 0,-1.24806 -1.98754,-7.2294 -1.98754,-7.2294 l -5.00161,-6.4868 c 0,0 -2.74261,-3.50393 -2.99223,-5.00161 -0.24961,-1.49767 -4.73951,-7.73174 -4.73951,-7.73174 l -8.49618,-8.99853 c 0,0 -11.23256,-2.73014 -12.23101,-2.73014 -0.99845,0 -5.49147,-2.00938 -5.24186,-3.75666 0.24961,-1.74729 2.75198,-3.49458 2.75198,-3.49458 0,0 0.24336,-4.24653 -1.00469,-3.99691 -1.24806,0.24961 -0.98285,-3.99381 -0.98285,-5.24186 0,-1.24807 -3.01407,-9.71929 -3.01407,-9.71929 l -3.23248,-2.00938 -2.48989,-6.98915 c 0,0 -8.98916,-1.24494 -10.98606,-1.24494 z m -19.85355,19.48225 2.48988,0 1.13574,2.73014 -0.7426,3.62562 -2.00938,-1.1139 -0.87364,-5.24186 z m 2.00938,8.73644 1.61624,0.24025 0.24025,7.73174 -1.11389,0.50235 -0.7426,-8.47434 z m 2.11858,13.58515 0.98285,5.13266 c 0,0 -0.87052,0.87676 -1.24494,1.37598 -0.37441,0.49923 -1.11389,-2.14042 -1.11389,-2.14042 l 0.37129,-3.60378 1.00469,-0.76444 z" id="path6041"/>
    <path style="fill:#565248;stroke:none" d="m 46.517137,504.55946 c -0.66007,1.10011 -3.52034,4.18041 -4.18041,7.26072 -0.66006,3.0803 -3.30033,17.82173 -3.30033,20.02195 0,2.20021 -1.98019,14.52141 -1.54015,16.06156 0.44005,1.54015 -2.86027,7.48073 -3.74036,7.70075 -0.88009,0.22003 -7.48073,7.70075 -7.48073,7.70075 l -3.96038,3.0803 c 0,0 -1.9802,3.52035 -2.20022,5.0605 -0.22002,1.54015 1.32013,5.06049 1.32013,5.06049 l 0.22002,3.30032 c 0,0 4.18041,5.50054 4.62045,6.60064 0.44004,1.10011 4.40043,7.70075 5.50054,8.36082 1.1001,0.66006 2.64025,2.42023 3.74036,1.32013 1.10011,-1.10011 2.64026,-1.9802 3.0803,-3.74037 0.44004,-1.76017 0.22002,-3.52034 -0.44004,-5.28051 -0.66007,-1.76017 -1.32012,-2.42024 -2.86028,-5.06049 -1.54015,-2.64026 -1.98019,-1.9802 -1.76017,-4.40043 0.22002,-2.42024 -0.22002,-2.20022 1.10011,-4.40043 1.32012,-2.20022 0.44004,-1.10011 1.98019,-2.42024 1.54015,-1.32013 3.96038,-1.98019 5.50053,-2.86028 1.54015,-0.88008 0.66007,-0.44004 1.76018,-1.32012 1.10011,-0.88009 3.30032,-2.86028 3.30032,-2.86028 0,0 3.0803,-1.76017 4.18041,-4.62045 1.10011,-2.86029 1.98019,-4.84048 2.86028,-6.38063 0.88008,-1.54015 4.18041,-5.28051 5.72056,-7.48073 1.54015,-2.20021 5.28051,-5.94058 5.28051,-5.94058 l 7.92077,9.02088 c 0,0 4.62045,9.46092 5.50054,11.66114 0.88008,2.20022 2.42023,19.80193 2.42023,19.80193 l 2.86029,9.2409 2.20021,6.1606 1.32013,8.58084 0.22002,5.50054 c 0,0 0.44004,3.96038 1.54015,4.40043 1.100107,0.44004 5.500537,3.74036 5.500537,3.74036 0,0 4.62045,2.42024 6.380616,1.54015 1.76017,-0.88008 5.94058,-1.54015 5.94058,-1.54015 0,0 -0.44005,-2.20021 -1.10011,-3.30032 -0.66006,-1.10011 -3.52034,-3.96039 -3.74036,-4.84047 -0.22003,-0.88009 -1.32013,-1.98019 -1.32013,-3.0803 0,-1.10011 -0.22002,-5.72056 -0.22002,-5.72056 0,0 -2.200216,-1.54015 -1.320126,-2.20022 0.880076,-0.66006 1.980186,-3.52034 1.760166,-4.84047 -0.22002,-1.32013 -1.760166,-5.94058 -2.420236,-6.82066 -0.66006,-0.88009 -1.98019,-1.76018 -1.54015,-3.30033 0.44005,-1.54015 0,-16.72162 0,-16.72162 l -3.30032,-7.26072 c 0,0 -0.88008,-5.50053 -0.88008,-6.38062 0,-0.88008 -0.22003,-13.20128 -0.22003,-13.20128 0,0 -1.54015,-5.72056 -2.20021,-6.60065 -0.660057,-0.88008 -3.520337,-8.36081 -3.520337,-8.36081 l -1.32013,-2.64026 c 0,0 3.0803,-3.0803 3.96038,-4.40043 0.880087,-1.32012 9.020877,-7.04069 9.680947,-7.92077 0.66006,-0.88009 4.840466,-3.30032 5.720546,-3.30032 0.88009,0 3.0803,-0.88009 4.40043,-0.88009 1.32013,0 12.10118,10.78106 12.10118,10.78106 l 12.98127,9.2409 7.26071,1.98019 1.1001,4.18041 2.20022,-0.22003 0.44004,-2.64025 8.36082,4.84047 1.1001,2.20021 2.64026,-0.66006 -4.84047,-7.48073 -3.30032,-3.74036 -6.1606,-4.84048 -11.44112,-10.34101 -2.20021,-1.98019 7.48073,-8.36082 3.0803,-7.04068 -0.44005,-2.42024 0.66007,-2.86028 -1.54015,1.10011 -1.54015,-2.20021 -6.60064,-7.70075 -2.20022,-0.44005 -2.42023,1.32013 -1.76018,1.54015 -0.22002,3.74037 0,4.1804 -0.22002,2.86028 -1.76017,2.20022 -1.10011,1.1001 -2.31023,-2.42023 -0.99009,-4.18041 c 0,0 0,-3.0803 -0.11001,-3.52034 -0.11001,-0.44004 0.11001,-3.0803 0.11001,-3.0803 l 1.21011,-1.43014 2.31023,-2.64026 4.73047,0.44005 0.44003,-1.54015 1.65016,-3.19032 2.53026,-2.75027 0.55005,-3.74036 0.66006,-2.20022 0.9901,-1.87018 2.64026,2.53025 0.77007,0.11001 c 0,0 -0.22002,-1.76017 -0.33003,-2.20022 -0.11001,-0.44004 -2.0902,-2.0902 -2.0902,-2.0902 l -0.88009,-0.77007 c 0,0 0.44004,-3.0803 0.44004,-3.96039 0,-0.88009 -0.33003,-5.06049 -0.33003,-5.06049 l -4.84048,-2.53025 -4.07039,-1.54015 -3.52034,0.33003 c 0,0 -2.97029,0.66007 -3.52035,1.32013 -0.55005,0.66007 -2.86028,2.97029 -2.86028,2.97029 0,0 -0.66006,2.97029 -0.66006,3.41033 0,0.44005 -0.33003,2.64026 -0.33003,2.64026 l -1.65016,1.43014 c 0,0 -0.88009,1.87018 -0.55006,2.64026 0.33004,0.77007 -0.33003,1.98019 -0.33003,1.98019 l -2.0902,0.88008 -7.04069,1.54015 -5.280506,1.9802 -4.51044,3.0803 -7.040687,4.62045 -8.58084,4.95048 -5.72056,5.50054 -4.62045,5.06049 c 0,0 -2.97028,3.30032 -3.0803,3.85038 -0.11001,0.55005 -3.85037,3.63035 -3.85037,3.63035 l -5.94058,2.64026 -3.63035,1.76017 -2.86028,1.98019 z" id="path6123"/>
    <path style="fill:#fd3301;stroke:none" d="m 282.07004,242.29743 c -1.23645,0.0721 -3.88127,1.80874 -3.88127,1.80874 l -2.26093,2.14788 c 0,0 -3.98354,3.02535 -4.52185,3.24067 -0.53832,0.21533 -3.54751,1.39155 -4.40882,1.71454 -0.8613,0.32299 -1.30003,1.41308 -1.30003,1.41308 0,0 -0.54101,0.63791 0.3203,0.96089 0.86131,0.323 0.86131,1.29197 1.50728,1.50729 0.64598,0.21533 1.09279,2.14788 1.09279,2.14788 0,0 0.75364,6.24448 0.75364,7.53644 0,1.29196 1.07394,0.65943 1.07394,0.65943 l 0.9609,0.9609 c 0,0 -0.10767,2.47088 0,2.90153 0.10766,0.43065 -0.43335,3.01457 -0.43335,3.01457 l 1.50729,0.54639 0.75364,1.62033 0.11305,1.6015 2.05367,1.30003 0.20726,1.50729 1.50728,1.18699 0.6406,1.60149 1.30003,1.94063 2.37398,-0.20725 4.29577,-1.73338 -0.20725,2.60007 -1.73338,2.35513 c 0,0 -1.5046,2.79655 -2.58123,5.5958 -1.07663,2.79924 1.94332,5.39662 2.37397,6.68859 0.43065,1.29195 5.5958,9.89156 5.5958,9.89156 0,0 0.85593,4.52186 0.6406,6.02915 -0.21532,1.50729 2.37398,10.55101 2.37398,10.55101 l -0.6406,3.67401 -3.01457,5.16245 -1.94063,9.25097 -7.32918,13.79168 -3.01458,1.28119 -4.52186,1.30003 -3.22182,6.66975 -1.30004,2.37397 2.37398,1.07394 -18.08744,8.83647 -41.56342,22.38321 c 0,0 -4.29846,2.16134 -6.2364,2.80732 -1.93794,0.64598 -1.08471,-1.28658 -1.30004,-2.14789 -0.21532,-0.8613 0.65944,-1.93793 0.65944,-3.01457 0,-1.07663 -1.73338,-2.37398 -1.73338,-2.37398 0,0 -1.93256,0.20456 -3.65517,1.2812 -1.72261,1.07663 -1.29196,2.59737 -1.50728,3.67401 l -0.6406,3.44792 c 0,0 1.71723,3.76552 2.14788,4.08851 0.43065,0.32299 6.2364,2.14788 6.2364,2.14788 l 11.62495,-5.16245 22.6093,-12.05829 18.95412,-11.62495 10.43796,-5.70885 2.92037,-0.75364 c 0,0 1.81951,1.40231 2.03484,1.94063 0.21532,0.53832 2.48702,-2.48702 2.48702,-2.48702 l 3.44792,-0.86669 4.72911,-2.26093 3.33487,-5.16246 11.0974,-6.02915 3.86242,1.82759 0.33914,-1.60149 -0.33914,-2.16673 2.37398,1.41308 1.30003,-1.18698 3.01457,-0.65944 c 0,0 3.11147,-1.60687 3.54213,-1.71454 0.43065,-0.10766 2.48702,-5.38855 2.48702,-5.38855 l 0.0942,-4.20156 1.09279,-0.4145 0.75364,-2.37398 5.16246,-5.2755 3.44791,-3.24067 4.95521,-6.87699 4.52186,-7.21614 2.78848,0.86669 1.73338,1.71454 -3.35371,4.31461 -4.40882,4.72911 -3.76821,5.70885 -2.58123,5.16245 0.64059,4.63491 4.08852,6.66974 4.42765,6.78279 -0.11304,3.01457 3.97546,8.40313 7.21614,16.69319 1.94063,4.29577 0.11305,3.76822 -1.62034,2.90152 c 0,0 -1.71992,2.90961 -1.82758,3.44792 -0.10766,0.53832 -1.83835,2.47626 -2.05368,3.01457 -0.21532,0.53832 -3.65517,2.81001 -4.40881,3.24067 -0.75365,0.43065 -0.97167,1.81682 -1.18699,2.35514 -0.21532,0.53831 2.37667,2.70773 2.80732,2.60007 0.43065,-0.10767 4.84216,1.07394 4.84216,1.07394 l 6.89583,0.75364 c 0,0 5.69271,-1.29734 5.36971,-2.37398 -0.32298,-1.07663 2.16673,-2.05367 2.16673,-2.05367 l 4.08851,0.54639 3.97547,-2.69428 c 0,0 -0.54101,-4.61875 -0.43334,-5.04941 0.10766,-0.43065 -1.50729,-5.06825 -1.50729,-5.06825 0,0 -1.61226,-3.11686 -1.82759,-3.65517 -0.21532,-0.53832 -3.22182,-9.04372 -3.22182,-9.04372 l -1.82759,-7.96977 -0.86669,-6.4625 c 0,0 -1.49921,-7.65217 -1.71453,-8.08282 -0.21533,-0.43065 -3.02265,-8.17703 -3.56097,-8.93067 -0.53832,-0.75364 -3.23797,-2.79118 -3.56096,-3.22183 -0.32299,-0.43065 -1.49383,-2.58661 -1.60149,-3.44791 -0.10767,-0.86131 0.52755,-3.33488 0.52755,-3.33488 l 4.20156,-2.48702 0,1.73338 3.76821,4.40881 c 0,0 11.53074,11.08125 11.53074,11.5119 0,0.43065 2.14789,3.24067 2.14789,3.24067 l 3.12762,2.14788 5.2755,0.75365 c 0,0 0.0969,0.75364 -0.22609,1.50728 -0.323,0.75365 2.48702,2.14789 2.48702,2.14789 l 6.87699,2.80732 c 0,0 15.62464,11.30734 15.73231,11.73799 0.10766,0.43066 3.22451,2.6889 3.65517,2.58123 0.43065,-0.10766 2.26362,1.60688 2.69427,1.71454 0.43066,0.10766 -0.32837,1.83835 -0.86669,2.80732 -0.53832,0.96897 0.74557,1.83835 0.9609,2.80732 0.21533,0.96897 2.15326,2.58123 2.26093,3.33487 0.10767,0.75365 1.19506,2.68082 1.73338,3.54213 0.53831,0.8613 1.1816,3.55827 1.07394,4.6349 -0.10766,1.07664 -1.93255,3.22721 -2.90153,4.08852 -0.96897,0.8613 -0.85862,2.90691 -1.07394,3.76821 -0.21532,0.86131 1.38348,0.86131 1.92179,0.75365 0.53832,-0.10767 6.36829,-1.07395 6.36829,-1.07395 l 5.69,-3.65517 2.60007,-4.08851 0,-4.95521 c 0,0 -0.11305,-6.46517 -0.11305,-7.64947 0,-1.1843 1.72262,-1.73069 3.01458,-2.80733 1.29195,-1.07663 1.18699,-1.60149 1.18699,-1.60149 0,0 1.06586,-4.3146 1.28119,-5.06825 0.21532,-0.75364 0.22609,-3.0038 0.22609,-4.29576 0,-1.29197 -1.61495,-1.72262 -2.26093,-2.26093 -0.64598,-0.53832 -3.66593,-0.11843 -4.6349,-0.2261 -0.96897,-0.10766 -4.72911,0 -4.72911,0 l -4.74796,-1.18699 -4.29576,-4.40881 -7.53644,-5.48275 -2.80732,-4.95521 c 0,0 -6.66974,-6.3629 -7.42338,-7.00888 -0.75365,-0.64598 -3.2299,-1.93794 -4.52186,-2.26093 -1.29196,-0.32299 -4.20964,-0.95821 -4.74796,-1.28119 -0.53831,-0.323 -2.46279,-4.6376 -2.35513,-5.06825 0.10766,-0.43066 -2.60007,-7.42339 -2.60007,-7.42339 l -1.71454,-7.76253 -3.44792,-6.23639 0.75365,-1.18699 c 0,0 2.05098,-2.9096 2.37397,-3.44792 0.32299,-0.53831 1.50729,-3.76283 1.50729,-5.16246 0,-1.39961 0.32837,-4.20425 0.11305,-5.38854 -0.21533,-1.1843 -0.005,-6.5567 -0.11305,-7.31034 -0.10766,-0.75365 -1.28927,-4.20425 -1.82758,-5.38855 -0.53832,-1.1843 -5.39394,-5.70616 -6.25524,-6.78279 -0.86131,-1.07663 -5.58504,-4.31461 -6.877,-5.06825 -1.29196,-0.75365 -10.2334,-6.34676 -10.66405,-6.66975 -0.43066,-0.32299 -16.6932,-9.68431 -16.6932,-9.68431 0,0 -10.01,-5.80844 -11.62495,-5.9161 -1.61494,-0.10766 -11.94524,-1.41308 -11.94524,-1.41308 l -5.06825,1.30003 c 0,0 -4.85023,-0.33375 -5.38855,-0.97973 -0.53831,-0.64599 -0.53562,-1.81683 -0.3203,-2.35514 0.21533,-0.53832 -1.49921,-3.33757 -1.71454,-3.76822 -0.21533,-0.43065 0.3203,-2.16672 0.3203,-2.16672 l -1.50729,-2.78848 c 0,0 -2.15326,-2.9096 -2.26093,-3.44792 -0.10766,-0.53831 0.11574,-2.59199 0.5464,-2.80732 0.43065,-0.21533 -1.30004,-1.16815 -1.30004,-1.16815 l -4.63491,-0.33914 -3.76821,-0.52755 c 0,0 -3.43446,-0.53563 -4.29577,-1.07394 -0.10766,-0.0673 -0.25671,-0.10451 -0.43334,-0.0942 z m 20.66866,63.17414 3.12762,0.54639 4.20156,1.2812 4.52186,3.56096 6.99004,0.43335 0.11305,1.62033 -1.41308,3.65517 -7.63064,16.25985 -1.50728,0.9609 -3.99431,7.53643 -3.65517,3.76822 c 0,0 -5.70077,6.35751 -5.9161,6.89583 -0.21533,0.53832 0,3.44792 0,3.44792 l -8.51617,4.40881 6.46249,-8.61037 3.99431,-4.84216 2.67543,-6.68858 c 0,0 2.26362,-6.02107 2.69428,-6.2364 0.43065,-0.21533 0.54639,-7.0977 0.54639,-7.74368 0,-0.64599 -0.54639,-9.38286 -0.54639,-9.38286 l -2.14789,-10.87131 z" id="path6475"/>
    <path style="fill:#0169c9;stroke:none" d="m 326.13982,426.91715 c -0.96579,0.063 -3.66205,3.07679 -3.66205,3.07679 0,0 -3.62144,6.31841 -3.81254,7.27394 -0.19111,0.95552 0.75247,8.59494 0.75247,8.59494 l 1.5384,5.91948 2.47481,4.96635 4.3978,7.27393 -4.19714,6.30408 -4.78241,7.07327 -1.15379,8.21035 -1.13708,3.82927 c 0,0 -3.0529,6.67673 -3.24401,7.44115 -0.1911,0.76443 -4.3978,12.61054 -4.3978,14.33049 0,1.71994 2.47481,4.59847 2.47481,4.59847 l 0.95314,0.38459 4.21386,0.95314 3.81255,-0.3846 4.3978,-4.7824 c 0,0 1.34729,1.34251 1.5384,2.10693 0.1911,0.76442 2.29087,2.67547 2.29087,2.67547 l 4.01321,-0.3846 3.6286,-1.52167 3.44467,-0.96986 c 0,0 -0.57093,-1.91105 -0.95314,-2.67547 -0.38221,-0.76442 1.13708,-0.75248 1.13708,-0.75248 l 18.15975,-9.1802 14.33049,7.84247 c 0,0 1.33057,1.52645 1.52168,2.29087 0.19111,0.76442 3.26073,3.06007 3.26073,3.06007 l 2.29087,2.29087 -3.24401,3.44467 -7.84247,9.16349 -3.44467,5.35094 -7.64181,12.80881 c 0,0 -2.29087,5.34139 -2.29087,6.48802 0,1.14663 2.29087,5.167 2.29087,5.167 l 6.30407,5.73554 5.55161,4.01321 2.47481,2.67547 9.1802,7.82571 11.47108,6.8894 7.44116,7.2572 0.58525,7.0733 c 0,0 -1.15379,6.6935 -1.15379,7.4578 0,0.7645 -3.82927,5.1503 -3.82927,5.1503 l 2.49153,2.4915 5.91948,-2.8761 c 0,0 5.17178,-2.0973 5.9362,-1.9063 0.76442,0.1912 4.76568,-7.0733 4.76568,-7.0733 l 4.01321,0.3847 7.27393,-9.1635 -1.33773,-1.5384 -5.9362,-3.6286 -8.59495,-4.9664 c 0,0 -9.55286,-8.9867 -10.31728,-10.13331 -0.76442,-1.14663 -6.49996,-6.50235 -7.07328,-7.45787 -0.57331,-0.95553 -3.2464,-4.20192 -4.96634,-6.30408 -1.71995,-2.10215 -4.96396,-4.19236 -5.91948,-4.76568 -0.95553,-0.57331 -4.59846,-2.30759 -4.59846,-2.30759 l 3.26073,-3.24401 4.0132,-3.24401 3.24401,-2.10693 2.85941,4.96634 0.20066,4.7824 2.67547,0.18394 3.24401,3.26073 2.67547,8.59495 4.96634,9.36412 2.67547,3.0601 16.43742,7.2572 1.33774,1.5384 6.12014,3.428 26.7547,11.8556 c 0,0 0.75248,1.9039 0.75248,2.8594 0,0.9556 0.39415,5.9244 0.58526,6.6887 0.1911,0.7644 -1.5384,3.2607 -1.5384,3.2607 0,0 -1.71039,2.0975 -2.47481,1.9063 -0.76442,-0.1911 -3.06007,2.107 -3.06007,2.107 l 0.56854,3.0433 c 0,0 12.04439,-0.1839 12.80881,-0.1839 0.76442,0 4.78241,-1.7224 4.78241,-1.7224 l 4.76568,-8.7956 1.92299,0 3.24401,-1.9063 3.44467,-4.5817 -1.5384,-5.5516 -5.91948,-4.1971 -5.91947,-2.6755 -20.65129,-11.2704 -5.73554,-5.351 -16.23676,-7.27391 c 0,0 -4.01082,-0.75486 -4.96634,-1.13707 -0.95553,-0.38221 -1.5384,-4.39781 -1.5384,-4.39781 l -2.09021,-6.50474 -0.95314,-6.10341 4.76568,-1.33774 0.7692,-3.82927 -2.49153,-6.68867 -4.96634,-20.06603 -1.13708,-5.73554 c 0,0 -0.01,-4.58413 -0.20066,-6.30408 -0.1911,-1.71994 -4.19714,-7.45787 -4.19714,-7.45787 l -6.88934,-6.10342 1.33774,-2.29087 -1.52168,-3.64533 0.95314,-3.24401 0.20066,-4.0132 28.46032,-15.66823 2.67547,-0.95313 0,1.90627 c 0,0 -0.56137,1.71517 -0.75248,3.24401 -0.1911,1.52884 0.95075,1.72472 1.90627,2.10693 0.95553,0.38221 5.35095,-3.62861 5.35095,-3.62861 l 0.18393,-6.12013 c 0,0 -2.29325,-2.28848 -4.0132,-3.24401 -1.71994,-0.95552 -4.58175,0.18394 -4.58175,0.18394 l -15.28362,7.84247 -13.76195,7.64181 c 0,0 -0.37504,-1.91105 -0.18394,-2.67547 0.1911,-0.76442 -0.38699,-3.81732 -0.7692,-4.58174 -0.38221,-0.76442 -2.86419,-3.63338 -3.6286,-4.39781 -0.76442,-0.76442 -8.97955,-3.82926 -8.97955,-3.82926 l -20.83523,-9.16349 -6.12014,-0.95314 -5.53488,2.29088 c 0,0 -2.87851,1.34251 -3.26073,2.10693 -0.3822,0.76442 -8.21035,-0.20066 -8.21035,-0.20066 l -0.56853,-3.62861 0,-6.87261 -2.87613,-6.88934 -2.85941,-4.3978 -6.50474,-3.24401 c 0,0 -7.06133,-0.77159 -7.82575,-1.1538 -0.0478,-0.0239 -0.10283,-0.0209 -0.16722,-0.0167 z m 61.35188,43.29246 5.53488,2.15709 0.28427,2.84269 2.1571,3.51156 -1.48823,1.22068 -4.86601,-5.53488 -1.62201,-4.19714 z m -56.60292,15.21673 8.79561,5.15028 8.97955,5.16701 4.0132,2.29087 -16.25348,8.97955 -3.62861,-2.10694 -3.81254,-0.95313 -2.29087,-1.90628 -2.3076,-0.38459 3.82927,-9.93269 2.67547,-6.30408 z" id="path6480"/>
    <path style="fill:#6699cc;stroke:none" d="m 597.73491,606.83319 c 0,0 -0.50249,-4.35497 -0.66999,-5.19247 -0.1675,-0.83749 0.66999,-11.72494 0.66999,-11.72494 l -0.1675,-4.68998 1.005,-3.85248 4.18748,-2.51249 3.34998,-4.85747 5.02497,-5.86247 10.21746,-1.67499 7.36996,-2.51249 1.67499,-2.67999 1.17249,0.67 c 0,0 1.5075,-4.18748 2.17749,-3.85248 0.67,0.33499 1.84249,0.1675 1.84249,0.1675 l 5.52748,-6.36497 2.34499,-2.00999 -1.34,-0.67 c 0,0 2.17749,-1.33999 3.18249,-1.50749 1.00499,-0.1675 7.70496,1.50749 7.70496,1.50749 l 4.35497,3.01499 c 0,0 1.84249,2.84748 1.84249,3.68498 0,0.8375 1.1725,2.67999 1.675,4.01998 0.50249,1.33999 0.1675,3.18248 0.1675,3.18248 l -1.67499,1.005 c 0,0 1.84249,1.67499 1.67499,2.34499 -0.1675,0.66999 -4.68998,5.86247 -4.68998,5.86247 l -3.18248,3.85248 -2.00999,-1.005 -2.00999,1.1725 -1.50749,1.00499 c 0,0 -0.5025,0.335 1.00499,2.00999 1.50749,1.67499 4.18748,5.02498 4.18748,5.02498 l 0.335,3.68498 1.84249,1.33999 0,4.01998 c 0,0 0.1675,1.84249 1.67499,1.17249 1.50749,-0.66999 4.52248,1.005 4.52248,1.005 l -0.5025,3.34999 1.84249,-1.1725 1.84249,-0.335 c 0,0 1.34,0.83749 1.84249,1.67499 0.5025,0.8375 1.67499,0 2.51249,-0.5025 0.83749,-0.50249 1.84249,-0.50249 2.84749,0.1675 1.00499,0.67 2.34498,1.84249 2.34498,1.84249 l 5.86247,0.5025 2.34499,-1.67499 5.19247,-5.19247 4.85748,0.33499 0.5025,3.85249 c 0,0 0.1675,1.67499 0.50249,2.51248 0.335,0.8375 0.8375,4.18748 0.5025,4.85748 -0.33499,0.66999 0.1675,1.84249 -1.67499,2.17749 -1.84249,0.335 -3.51748,1.17249 -3.51748,1.17249 l 1.00499,57.78721 1.5075,21.77489 -2.00999,0 -2.67999,-36.68231 -0.335,-24.11988 0.1675,-16.24742 -0.1675,-2.51249 -1.67499,0.5025 0.5025,1.67499 -1.50749,-0.335 -1.005,-0.66999 -2.51249,2.17749 -3.34998,0.66999 -1.50749,-0.8375 c 0,0 -1.50749,2.34499 -2.17749,1.8425 -0.67,-0.5025 -3.68498,-1.1725 -3.68498,-1.1725 l -9.71495,1.1725 -8.37496,0 -1.1725,-2.34499 -2.51249,-1.17249 -10.88744,10.55244 2.00999,5.86247 3.34998,5.86247 10.04995,16.58242 5.86247,6.53247 c 0,0 4.52248,4.68997 4.68998,5.35997 0.1675,0.67 0,3.68498 0,3.68498 l 5.52747,5.02498 2.51249,5.52747 3.68498,11.55744 3.18248,6.53247 0.67,4.85746 c 0,0 5.86247,5.1925 6.53247,5.52751 0.67,0.33496 4.52248,8.20746 4.52248,8.20746 l 1.17249,2.51247 9.21245,5.52746 1.43319,0.78356 21.17919,9.93641 9.37995,3.85245 0.83749,2.01003 -8.70994,5.02493 -28.80985,-16.74988 -27.97236,-15.91243 -5.52747,-3.51748 -1.1725,-11.89247 -9.21245,-11.38993 -3.68498,-5.86247 -4.18748,-7.36996 -0.67,-4.68997 -4.85748,-3.85249 -5.02497,-4.52248 -1.50749,-2.51248 -0.67,10.88745 c 0,0 -1.50749,3.34998 -1.84249,4.01997 -0.335,0.67 0.83749,6.53247 0.83749,7.36997 0,0.83749 1.8425,7.36996 2.01,8.03996 0.1675,0.66999 2.00999,7.70497 2.00999,7.70497 0,0 3.01498,5.86247 4.01998,6.69996 1.00499,0.83749 17.41991,13.06491 17.41991,13.06491 l 5.52747,2.84752 3.01498,-0.335 1.5075,3.34995 -13.56743,0.33501 -35.00733,-28.13986 -24.78987,-20.26739 10.04995,0.8375 13.23243,10.71994 -0.5025,-6.36497 -2.34499,-2.67998 2.67999,-1.67499 -0.335,-1.84249 -1.33999,-3.34999 -1.1725,-14.23743 0.1675,-5.19247 -11.05494,-4.01998 c 0,0 -4.18748,-3.51748 -4.52248,-4.35498 -0.335,-0.8375 -2.67999,-7.03496 -2.67999,-7.03496 l 2.17749,-6.19747 1.675,-7.20247 0.33499,-5.69497 -76.21212,25.29237 -0.16749,3.85249 -3.18249,-2.34499 -4.35498,1.67499 -1.67499,-2.00999 5.69497,-1.00499 0.67,-4.18749 c 0,0 2.51249,0.335 2.84749,1.34 0.335,1.00499 76.54711,-26.12987 76.37961,-26.79987 z" id="path6676" sodipodi:nodetypes="csccccccccccsccccsccssccscccccsccccsccccsssccccccssscccccccccccccccsccccccccccsccccccsccccccccccccccccccccssscscccccccccccccccccscccccccccccsc"/>
    <path style="fill:#336699;stroke:none" d="m 459.66717,635.89155 c -1.87923,0.0348 -4.85445,0.2924 -5.73174,0.37217 -1.16975,0.10696 -5.31966,2.43791 -6.38311,3.18224 -1.06339,0.74447 -5.52969,4.69231 -6.69944,5.86204 -1.16969,1.16972 -3.61019,4.55931 -3.61019,4.55931 l -0.53971,3.5173 -3.18227,2.43778 -5.21067,3.72194 -5.09902,3.83353 -12.65449,5.32234 -4.80128,0.94911 -8.82092,4.89424 -5.21065,2.86587 -5.09901,3.5173 c 0,0 -6.71007,1.28132 -7.66714,1.6004 -0.95705,0.31907 -5.30373,4.24295 -5.30373,4.24295 0,0 -0.85603,-0.30581 -2.3448,-0.83738 -1.48876,-0.53171 -2.96954,-0.22333 -3.92661,-0.22333 -0.95706,0 -1.07138,1.48339 -1.28406,2.12141 -0.21268,0.63815 0.21799,5.85946 0.11173,6.92287 -0.10632,1.06328 0.94908,2.6611 0.94908,2.6611 l 3.83357,1.3772 c 0,0 6.91743,-0.31108 7.55548,-0.20477 0.63804,0.10696 1.79981,-2.66909 1.69346,-3.2008 -0.10631,-0.5317 2.24113,-2.76755 2.77282,-2.66123 0.53171,0.10696 5.21068,-3.18224 5.21068,-3.18224 l 7.96486,-2.45647 c 0,0 3.3072,1.38777 3.94522,1.6004 0.63809,0.21276 5.52707,5.00597 5.52707,5.00597 l 1.26545,4.03831 c 0,0 0.10902,3.40815 0.42799,3.83354 0.31908,0.42539 2.97754,0.63273 2.97754,0.63273 l -0.1116,1.06084 -2.43781,2.34473 -5.09903,3.92658 -11.59375,7.6672 c 0,0 -2.3448,-0.0129 -3.08919,-0.22332 -0.74438,-0.21263 -4.77468,-0.20207 -5.73174,-0.52114 -0.95707,-0.31895 -7.1381,0.8348 -8.09515,1.15387 -0.95706,0.31895 -3.71128,0.86663 -4.24299,1.07939 -0.53169,0.21263 -7.77347,3.29642 -8.41151,3.72181 -0.63805,0.42539 -4.66834,3.28057 -4.66834,3.28057 l -6.81375,4.68432 -2.34482,1.71213 c 0,0 -3.82293,2.76484 -4.35462,2.97747 -0.53171,0.21276 -3.71394,2.5392 -4.67101,3.07064 -0.95705,0.53197 -2.97752,2.54951 -2.97752,2.54951 0,0 -2.12415,1.70439 -2.54952,1.91677 -0.42535,0.21301 -3.20084,2.45646 -3.20084,2.45646 l -3.08919,2.54951 -5.09901,4.89424 c -6.87445,5.80971 -8.76268,8.84723 -11.36778,14.78401 -1.9836,3.45596 -2.65706,6.64219 -2.88714,10.41349 -0.10632,0.85052 0.74439,2.86574 0.74439,2.86574 l 1.07935,2.23314 1.69347,2.34487 1.06074,0.74433 2.54951,1.37707 5.434,0.11212 4.46628,0 11.47146,-3.09178 10.53832,-4.67633 12.00849,-6.48691 c 0,0 13.51319,-10.09132 13.93856,-10.19802 0.42535,-0.10567 2.66117,-2.6611 2.66117,-2.6611 l 2.23313,-1.712 3.72192,-3.72194 2.23315,-2.64255 3.49859,-4.578 c 0,0 3.2035,-3.71897 3.62886,-4.0383 0.42537,-0.31882 2.23315,-3.40557 2.23315,-3.40557 0,0 3.50392,-5.75031 3.61022,-6.49464 0.10632,-0.74447 1.06077,-4.88896 1.06077,-5.52711 l 0,-4.24295 4.78263,-4.6896 -0.20468,5.95508 -0.31638,6.92273 -3.62884,5.30365 0.11173,3.6289 -0.11173,3.38701 -0.52106,3.51717 -3.72191,2.77283 -4.68962,3.72194 c 0,0 -3.39491,4.13135 -3.9266,4.87569 -0.53171,0.74433 -0.74971,3.41652 -0.85605,4.37323 -0.10632,0.95735 1.71209,2.12154 1.71209,2.12154 0,0 4.88367,-0.20477 5.41537,-0.20477 0.53171,0 7.12743,-1.17244 7.12743,-1.17244 l 0.3164,1.06084 c 0,0 -2.44051,0.52642 -2.86588,0.63273 -0.42537,0.10568 -4.46895,1.27605 -4.89431,1.48868 -0.42537,0.21276 -3.30187,1.06354 -3.83357,1.4888 -0.5317,0.42539 -1.06074,2.66381 -1.06074,3.0892 0,0.42539 1.49408,2.54151 1.60041,3.49861 0.10632,0.95697 1.15647,1.49176 1.58182,1.91677 0.42536,0.42552 4.89432,1.91677 4.89432,1.91677 l 0.1116,0.11211 3.51718,0.94911 0.74437,2.14009 1.26545,2.64255 c 0,0 1.70946,2.1428 2.02847,2.56819 0.31903,0.42539 3.61026,1.26547 3.61026,1.26547 l 5.21068,0.74434 c 0,0 6.69414,-0.94911 7.33216,-0.94911 0.63802,0 8.29986,-1.91676 8.29986,-1.91676 4.46473,-1.42231 8.48966,-3.71692 12.44977,-6.17841 0,0 3.2833,-1.90877 4.66571,-2.86587 3.09781,-1.91252 4.63837,-3.02554 7.76546,-4.89437 0,0 5.42864,-4.03289 6.06678,-4.67091 0.63767,-0.63803 1.69344,-1.80517 1.69344,-1.80517 l 1.2841,-1.06071 2.54948,-2.23314 2.0284,-1.82372 3.81499,-3.92658 1.28409,-1.80517 2.00983,-2.45646 c 0,0 1.70106,-1.91136 2.23315,-2.54951 0.53137,-0.63776 1.60036,-1.80517 1.60036,-1.80517 l 1.80516,-2.75415 c 0,0 3.0809,-7.55547 4.03829,-9.78861 0.95675,-2.23313 0.0161,-0.96779 0.33492,-1.71212 0.31937,-0.74434 0.21301,-2.32618 0,-3.07065 -0.21235,-0.74433 -0.6407,-1.82102 -1.91676,-3.62877 -1.27611,-1.80774 -1.82129,-1.80774 -3.62883,-2.9776 -1.80813,-1.16972 -3.60763,-1.37462 -4.67102,-1.69344 -1.0634,-0.31933 -8.82093,1.06071 -8.82093,1.06071 0,0 5.40999,-2.1267 6.04813,-2.23314 0.63773,-0.10567 5.63866,-3.18224 5.63866,-3.18224 0,0 7.76558,-3.61511 8.61619,-3.72194 0.85111,-0.10567 3.83899,-1.5977 4.68962,-1.91664 0.85104,-0.31908 7.01285,-5.21074 8.0766,-5.95508 1.06316,-0.74446 2.32861,-2.34241 2.75422,-3.40557 0.42501,-1.06379 4.0489,-8.29723 4.26156,-9.36064 0.21265,-1.06341 0.85306,-3.29126 1.17243,-4.35467 0.31878,-1.06329 0.94905,-10.00653 0.94905,-11.38902 0,-1.38248 -0.0985,-2.9669 -0.20468,-3.49861 -0.1067,-0.53157 -1.16998,-6.2766 -1.48876,-7.12738 -0.31937,-0.85078 -6.16515,-7.22312 -7.01583,-8.39298 -0.85074,-1.16972 -5.00861,-4.8012 -5.43399,-5.54553 -0.42536,-0.74447 -8.39787,-3.72194 -9.24898,-3.72194 -0.85061,0 -3.83351,0.65129 -3.83351,0.65129 l 0.74439,-0.96766 3.31244,-6.47621 c 0,0 -2.33938,-2.03108 -2.97753,-2.45647 -0.63772,-0.42526 -4.47421,-2.9642 -5.00594,-3.07051 -0.53172,-0.10567 -11.90768,-2.13211 -12.97083,-2.34487 -0.26596,-0.0528 -0.76934,-0.067 -1.39575,-0.0554 l 0,0 z m -17.84659,33.2553 0.74438,1.20968 -0.29776,2.86587 2.10292,1.19099 0.29775,1.50736 -2.40067,0.59549 -12.04034,7.68576 -7.05306,4.8012 -8.4301,7.36939 -1.20965,-0.74433 -3.29386,-1.20968 -2.717,-3.75905 -5.71315,-5.71319 9.17453,-4.50352 3.46139,-2.27038 7.816,-0.74433 7.81602,-3.16356 6.625,-2.54963 5.1176,-2.56807 z m 14.34799,32.82721 -0.63273,1.91676 -3.29391,1.39576 -7.98347,2.97761 -10.42135,6.27131 -7.01583,0 c 0,0 -0.1116,-2.55195 -0.1116,-2.97747 l 12.5429,-5.95508 3.40552,0.31637 c 0,0 3.9479,-0.75503 4.37322,-0.96766 0.42536,-0.21276 9.13731,-2.9776 9.13731,-2.9776 z m -41.89014,15.63208 -0.1116,4.26164 -2.54948,1.28403 0.94905,-4.6896 1.71208,-0.85607 z m 16.37641,1.82373 -2.02841,4.98728 -1.48876,0.63274 -0.74439,-5.52698 4.26156,-0.0928 z m -15.74367,6.27131 0.42804,3.29398 -4.68961,1.37707 4.26157,-4.67105 z m -21.21487,30.14755 -5.04318,6.02943 c 0,0 -0.52788,-3.54526 0.14886,-4.44759 0.67675,-0.90233 5.11989,-1.6571 4.89432,-1.58184 z m 1.87957,0.66998 c 0.0214,-0.0129 0.0745,0.16752 0.0745,0.16752 l 0.66994,1.50736 c 0,0 -0.38022,1.87128 -1.43292,2.69835 -1.05272,0.8272 -3.36834,0.81882 -3.36834,0.81882 l 3.75913,-5.02453 c 0.22558,0 0.29776,0.15104 0.29776,-0.0747 0,-0.0567 -0.008,-0.0889 0,-0.0928 z" id="path6899" sodipodi:nodetypes="csssccccccccccscssssccsssccsccscccccssssscccsscscccccccccccccccscccccscscccccccccccsscsccsssssscccccsccsccccscccccccsccsssssscscsssssssssssscccsssccccccccccccccccccccccccccccccscccccccccccccccccsccccsccsc"/>
    <path style="fill:#565248;stroke:none" d="m 479.68909,864.62506 2.52538,5.8084 4.79822,4.54573 5.55584,0.7576 c 0,0 3.283,-5.80843 3.53554,-6.81853 0.25254,-1.0102 1.51523,-6.31354 1.76776,-8.33384 0.25254,-2.0203 6.06092,-13.637 7.07107,-15.1523 1.01015,-1.5152 9.84899,-14.6472 9.84899,-14.6472 0,0 5.80838,-9.0914 6.06091,-10.354 0.25254,-1.2627 5.55584,-5.8084 5.55584,-5.8084 l 11.36422,-13.3845 c 0,0 1.26269,8.3337 1.51523,10.354 0.25254,2.0203 1.01015,9.3439 1.51523,12.3744 0.50507,3.0304 0.25254,8.5863 0,10.1015 -0.25254,1.5152 -2.27285,13.3845 -2.27285,13.3845 0,0 -3.78807,2.778 -2.77792,5.8084 1.01016,3.0305 -0.25253,26.26407 -0.25253,27.27417 0,1.0102 -3.78808,12.8795 -3.78808,12.8795 l -3.78807,16.1624 c 0,0 -2.27284,11.1117 -1.76776,12.6269 0.50507,1.5153 1.01015,16.6675 1.01015,16.6675 l 2.77792,14.6473 c 0,0 1.76776,4.2931 3.78807,3.5355 2.0203,-0.7576 10.35406,0.2525 10.85914,-1.5152 0.50508,-1.7678 2.77792,-6.566 3.283,-7.5762 0.50507,-1.0101 6.56599,-11.3642 6.56599,-11.3642 l 2.27284,-10.3541 c 0,0 -0.75761,-6.0609 0,-7.071 0.75761,-1.0102 4.54569,-10.6066 4.54569,-10.6066 l 1.26269,-3.0305 0,9.5965 0.25254,9.0913 -1.76777,12.3744 c 0,0 0,7.3236 0.75761,8.8388 0.75762,1.5153 2.27285,5.8084 2.02031,6.8186 -0.25254,1.0101 -1.76777,4.5457 -2.02031,5.8083 -0.25254,1.2627 -1.76776,7.8287 -1.51523,9.0914 0.25254,1.2627 1.76777,6.56604 2.02031,7.57624 0.25254,1.0101 2.52538,21.9708 2.52538,21.9708 l 0.75761,15.65727 -2.52538,7.0711 1.76777,9.5965 c 0,0 -1.26269,1.5152 0.25254,1.5152 1.51523,0 11.11168,2.0203 11.11168,2.0203 l 5.3033,-2.2729 -0.50508,-4.0406 c 0,0 -3.53553,-5.8083 -4.29315,-7.071 -0.75761,-1.2627 -2.27284,-2.5254 -2.27284,-4.2932 0,-1.7677 0.75761,-12.8794 0.75761,-12.8794 l 4.54569,-20.96067 2.27284,-14.14214 -0.50507,-10.1015 -1.76777,-7.5762 -2.77792,-7.0711 2.52538,-11.3642 9.09138,-19.9505 7.07106,-21.2132 c 0,0 4.54569,-27.02167 4.04061,-28.03177 -0.50507,-1.0102 -3.78807,-11.3642 -3.78807,-11.3642 0,0 -2.0203,-6.061 -2.0203,-7.0711 0,-1.0102 0.25253,-9.5965 0.25253,-11.1117 0,-1.5152 2.27285,-13.132 2.27285,-13.132 l 3.53553,-13.637 3.03046,-7.5762 15.9099,11.6168 c 0,0 8.83884,3.5355 9.84899,4.5457 1.01015,1.0101 19.1929,7.071 19.1929,7.071 l 4.29315,0.7576 -4.54569,0.7577 2.77792,5.0507 c 0,0 2.27284,0 1.51523,-1.0101 -0.75762,-1.0102 -1.51523,-1.5153 -0.50508,-2.5254 1.01015,-1.0102 4.29315,-3.5355 4.29315,-3.5355 l 2.77792,-2.778 1.01015,-5.0507 c 0,0 3.53554,-4.0406 2.02031,-4.0406 -1.51523,0 -9.84899,2.0203 -9.84899,2.0203 0,0 -7.57614,1.2627 -9.09137,0.2525 -1.51523,-1.0101 -8.5863,-4.2931 -8.5863,-5.8084 0,-1.5152 -14.64721,-14.1421 -14.64721,-14.1421 l -6.56599,-4.0406 c 0,0 -0.25254,-10.1015 -2.02031,-11.1117 -1.76777,-1.0101 -7.82868,-4.2931 -9.59645,-4.0406 -1.76777,0.2525 -5.3033,-1.0102 -5.3033,-1.0102 l -9.34391,-7.071 0.75761,-5.3033 c 0,0 1.01016,-1.0102 2.77792,-1.7678 1.76777,-0.7576 3.78808,-4.7982 4.04061,-5.8084 0.25254,-1.0101 -0.75761,-6.8185 -1.01015,-7.8287 -0.25254,-1.0101 -3.03046,-8.3337 -4.29315,-10.1015 -1.26269,-1.7677 -3.78807,-4.2931 -6.06091,-5.0507 -2.27285,-0.7577 -3.78807,-1.2627 -5.80838,-1.7678 -2.0203,-0.5051 -2.77792,-1.2627 -6.31345,0 -3.53554,1.2627 -6.56599,1.5152 -6.81853,2.7779 -0.25254,1.2627 -0.50508,2.5254 -0.75762,3.7881 -0.25253,1.2627 -0.25253,2.7779 -0.50507,4.0406 -0.25254,1.2627 -0.50508,3.5355 -1.01016,5.3033 -0.50507,1.7678 -0.25253,1.7678 -0.50507,3.7881 -0.25254,2.0203 -0.25254,3.0304 0.25254,5.8083 0.50507,2.778 0,4.2932 1.26269,5.8084 1.26269,1.5153 2.0203,0.7576 1.51523,3.283 -0.50508,2.5254 -0.75762,3.7881 -1.76777,4.0406 -1.01015,0.2526 -6.56599,-0.505 -6.56599,-0.505 l -4.54569,3.0304 c 0,0 -3.53553,4.5457 -5.3033,4.5457 -1.76777,0 -3.53553,-0.5051 -7.32361,0.7576 -3.78807,1.2627 -11.36421,12.1218 -11.86929,13.132 -0.50507,1.0101 -5.80838,7.8287 -5.80838,7.8287 0,0 -3.03045,2.5254 -3.03045,5.3033 0,2.7779 -0.25254,5.8084 -1.51523,6.0609 -1.26269,0.2525 -8.5863,12.1218 -8.5863,12.1218 0,0 -5.05076,6.0609 -5.55584,7.0711 -0.50507,1.0101 -4.79822,10.6066 -4.79822,10.6066 l -7.32361,17.6777 -2.0203,5.5558 -8.33376,6.81854 z" id="path7112"/>
    <path style="fill:#d9bb7a;stroke:none" d="m 149.39637,823.52832 13.8896,-18.6879 c 0,0 7.57614,-9.5964 8.83883,-10.354 1.26269,-0.7576 7.82869,-8.0813 7.82869,-9.0914 0,-1.0102 5.05076,-7.3236 5.05076,-7.3236 0,0 9.84899,-5.3033 10.85914,-5.3033 1.01015,0 9.09137,-3.7881 10.10152,-3.5355 1.01016,0.2525 6.566,0 6.566,0 l 4.29314,1.5152 c 0,0 -1.26269,-1.7678 -1.51523,-4.2932 -0.25253,-2.5253 -0.25253,-10.354 -0.25253,-12.1218 0,-1.7678 0.75761,-5.5558 1.76776,-6.566 1.01016,-1.0101 5.80838,-5.8084 7.32361,-6.3134 1.51523,-0.5051 7.32361,-1.5153 9.34391,-1.0102 2.02031,0.5051 8.33376,3.0305 9.34391,5.3033 1.01015,2.2729 1.01015,5.8084 1.26269,7.0711 0.25254,1.2627 1.01015,5.3033 1.26269,6.3134 0.25254,1.0102 0.50508,4.7983 0.50508,5.8084 0,1.0102 -1.76777,6.566 -1.76777,8.0812 0,1.5153 -2.52538,5.5559 -2.52538,5.5559 0,0 5.05076,1.2627 6.31345,1.7677 1.2627,0.5051 3.53554,2.778 3.78808,3.7881 0.25253,1.0102 1.76776,4.5457 1.01015,5.5558 -0.75762,1.0102 -2.02031,5.3033 -2.02031,5.3033 l 0,2.5254 1.38896,2.6517 9.09138,3.788 10.85914,4.5457 8.33376,3.283 7.3236,-0.1262 4.29315,-1.8941 5.80838,-5.4295 2.90419,-5.3033 1.89403,2.5253 -0.50507,2.3991 3.15672,-5.4295 2.02031,-1.2627 0.3788,4.0406 -2.65165,4.1669 2.39912,0.5051 4.54568,-2.3992 0.88389,3.4093 -4.54569,4.0406 -8.20749,6.0609 c 0,0 2.02031,0.3788 2.52538,0.6314 0.50508,0.2525 4.04061,0.6313 4.04061,0.6313 l -1.89403,3.4093 -9.97526,1.6415 -7.07107,-0.2526 -4.29315,-2.3991 -7.74804,-0.4605 -11.60715,-1.0714 -7.85714,-0.7143 -11.07143,-4.4643 -8.57143,20.5357 -3.03571,2.6786 -0.71429,4.1071 0,8.5715 c 0,0 2.85715,8.9285 2.67857,10.1785 -0.17857,1.25 2.32143,11.9643 2.32143,11.9643 0,0 -1.60714,9.1072 -1.60714,9.8214 0,0.7143 -7.32143,9.6429 -7.32143,9.6429 l -9.28571,9.1071 -7.5,10.8929 -1.25,2.3214 7.85714,4.4643 1.78571,1.9643 1.78572,-4.6429 c 0,0 2.85714,-2.5 3.57143,-2.3214 0.71428,0.1786 4.10714,1.25 4.82143,1.6072 0.71428,0.3571 2.5,3.5714 2.5,4.2857 0,0.7143 0.35714,3.2143 0.17857,4.1071 -0.17857,0.8929 0.35714,3.3929 0.53571,4.1072 0.17857,0.7142 3.21429,6.6071 3.92857,7.1428 0.71429,0.5357 3.03572,3.9286 3.03572,3.9286 l 0.53571,6.07142 -2.85714,6.25 -4.64286,0.3572 -4.28571,-4.6429 c 0,0 0.35714,-1.4286 -0.53572,-2.1429 -0.89285,-0.7142 -3.21428,-2.67852 -4.10714,-3.03572 -0.89286,-0.3571 -3.75,-3.0357 -3.75,-3.0357 l 0,-2.5 -2.32143,-1.4286 -5.35714,0 -2.14286,13.57152 -5,20.7143 -3.21428,14.1071 c 0,0 -1.25,7.6786 -1.60715,8.5714 -0.35714,0.8929 1.25,8.2143 1.25,9.10716 0,0.8928 1.96429,10.5357 1.96429,10.5357 l -11.78572,2.6786 -10.35714,-2.6786 -0.17857,-5.3572 4.28571,-6.78566 2.67858,-6.6071 3.21428,-12.1429 -1.07143,-24.4643 c 0,0 0.71429,-16.25002 1.25,-17.14282 0.53572,-0.8929 1.78572,-7.6786 1.78572,-7.6786 l -0.53572,-2.3214 c 0,0 -8.57143,-17.5 -8.75,-18.5714 -0.17857,-1.0715 -3.03571,-12.5 -3.03571,-12.5 l -1.78572,-16.4286 -0.17857,-8.3929 2.14286,-12.5 1.60714,-14.4643 1.42857,-15.5357 1.07143,-14.4643 0.35715,-12.8571 -6.78572,3.75 -8.57143,9.4643 -7.67857,7.6786 -0.35714,7.3214 5,-2.3214 1.96428,0.8928 -3.21428,6.0714 -1.96429,3.2143 3.57143,5.1786 -2.85714,1.4286 -3.21429,-3.2143 2.67857,4.4643 -3.39285,1.0714 -3.39286,-3.3929 -0.89286,12.5 -2.32143,-1.4285 0.17858,-10 -0.71429,-6.4286 -5.71429,-8.5714 0.20514,-6.9401 z" id="path7114"/>
    <path style="fill:#816647;stroke:none" d="m 69.651506,700.30227 c -1.43215,-0.029 -5.84375,3.2812 -5.84375,3.2812 0,0 -4.09821,3.0357 -4.8125,3.75 -0.71429,0.7143 -1.59375,4.616 -1.59375,5.6875 0,1.0714 1.42857,5.5536 1.25,6.625 -0.17857,1.0714 -0.1875,5 -0.1875,5 0,0 -1.08928,1.0625 -0.375,2.3125 0.71429,1.25 1.61161,2.5044 1.96875,3.2188 0.35714,0.7143 3.03125,5.3437 3.03125,5.3437 l -5.34375,2.6875 -0.90625,3.0312 -3.1875,2.5 -9.3125,4.2813 c 0,0 -5.50893,8.7634 -5.6875,9.6563 -0.17857,0.8929 -0.1875,9.8124 -0.1875,9.8124 l -3.5625,19.2813 -1.8125,8.5937 -3.03125,6.4063 -3.75,17.5 -2.125,5.375 c 0,0 -1.79464,4.1072 -1.4375,5 0.35714,0.8929 1.59375,4.625 1.59375,4.625 l -1.40625,11.4375 -1.4375,6.7812 c 0,0 -3.74554,4.3081 -3.03125,4.8438 0.71428,0.5357 3.40178,0.5312 3.9375,-0.7188 0.53571,-1.25 5.34375,-8.75 5.34375,-8.75 0,0 1.79464,-5.7232 1.4375,-6.4374 -0.35714,-0.7144 0.53125,-2.8438 0.53125,-2.8438 l 2.5,-2.1562 c 0,0 0.33929,-1.2635 -0.375,-2.1563 -0.71428,-0.8929 0.90625,-2.8437 0.90625,-2.8437 l 0.71875,-5 5.34375,-10.9063 4.46875,-11.0625 0.53125,-7.125 3.21875,-10.5625 1.0625,-7.125 1.625,-3.75 1.78125,10.875 c 0,0 1.95983,12.1607 1.78125,12.875 -0.17857,0.7143 -1.0625,10.3483 -1.0625,11.0625 0,0.7143 -2.3125,7.5 -2.3125,7.5 0,0 -0.54465,4.4643 -0.1875,6.25 0.35714,1.7858 0.1875,34.2812 0.1875,34.2812 l 1.0625,13.5938 1.59375,14.0938 2.34375,12.8437 5.53125,11.0937 6.59375,2.5 6.78125,-5 0.375,-8.5937 0.53125,-7.5 -0.90625,20.7187 -1.25,5.1876 -0.875,19.09371 c 0,0 -0.90625,9.2857 -0.90625,10 0,0.7143 -1.96875,11.8125 -1.96875,11.8125 l -3.375,5.875 -2.15625,6.43751 -1.78125,8.75 7.3125,3.0313 9.65625,-0.5313 1.78125,-4.8125 -3.21875,-7.1562 3.03125,-16.59381 8.75,-23.75 3.406254,-13.59381 -1.625,-11.4062 3.21875,-14.8438 -0.34375,-6.25 c 0,0 4.11161,-9.6339 4.46875,-11.0624 0.35714,-1.4285 2.12054,-8.0447 1.40625,-8.9376 -0.71428,-0.8929 1.8125,-8.2187 1.8125,-8.2187 l 2.5,-16.9375 -1.09375,-9.6562 6.78125,-9.6563 12.875,-13.1875 5.875,-8.4062 c 0,0 -1.59375,-9.4734 -1.59375,-10.1876 0,-0.7143 -3.40625,-10 -3.40625,-10 l -6.78125,-21.7812 -6.96875,-9.8125 -8.75,-2.1563 -8.1875,-2.6562 2.3125,-4.8438 c 0,0 -0.72768,-1.0669 -2.15625,-0.5312 -1.42857,0.5358 -3.562504,-0.1875 -3.562504,-0.1875 l 5.000004,-3.0313 -8.218754,-1.7812 -1.78125,-2.125 3.03125,-4.125 c 0,0 1.24553,-4.817 0.53125,-5.5312 -0.71429,-0.7144 -2.125,-1.0626 -2.125,-1.0626 l 1.40625,-9.8437 -4.28125,-4.4375 c 0,0 -11.58482,-2.683 -12.65625,-3.2188 -0.067,-0.033 -0.15452,-0.061 -0.25,-0.062 z m 34.687504,70.7812 4.3125,5 c 0,0 3.54911,4.6204 3.90625,6.4062 0.35714,1.7857 1.78125,6.4376 1.78125,6.4376 l 1.4375,5.3437 -5.34375,8.9375 -5.71875,7.5 -5.375,6.7812 -0.34375,-8.9062 -1.78125,-12.5 1.4375,-12.875 5.6875,-12.125 z" id="path7116"/>
  </g>
  <metadata>
    <rdf:RDF>
      <cc:Work>
        <dc:format>image/svg+xml</dc:format>
        <dc:type rdf:resource="http://purl.org/dc/dcmitype/StillImage"/>
        <cc:license rdf:resource="http://creativecommons.org/licenses/publicdomain/"/>
        <dc:publisher>
          <cc:Agent rdf:about="http://openclipart.org/">
            <dc:title>Open Clip Art Library</dc:title>
          </cc:Agent>
        </dc:publisher>
        <dc:title>Silhouette Sport Disciplines Set</dc:title>
        <dc:date>2010-08-03T22:17:53</dc:date>
        <dc:description>different sport disciplines in silhouette</dc:description>
        <dc:source>http://openclipart.org/detail/76813/silhouette-sport-disciplines-set-by-shokunin</dc:source>
        <dc:creator>
          <cc:Agent>
            <dc:title>shokunin</dc:title>
          </cc:Agent>
        </dc:creator>
        <dc:subject>
          <rdf:Bag>
            <rdf:li>baseball</rdf:li>
            <rdf:li>bicycle</rdf:li>
            <rdf:li>clip art</rdf:li>
            <rdf:li>clipart</rdf:li>
            <rdf:li>cricket</rdf:li>
            <rdf:li>cycling</rdf:li>
            <rdf:li>hammer throwing</rdf:li>
            <rdf:li>hockey</rdf:li>
            <rdf:li>run</rdf:li>
            <rdf:li>running</rdf:li>
            <rdf:li>silhouette</rdf:li>
            <rdf:li>ski</rdf:li>
            <rdf:li>snow</rdf:li>
            <rdf:li>sports</rdf:li>
            <rdf:li>sports2010</rdf:li>
            <rdf:li>thrower</rdf:li>
          </rdf:Bag>
        </dc:subject>
      </cc:Work>
      <cc:License rdf:about="http://creativecommons.org/licenses/publicdomain/">
        <cc:permits rdf:resource="http://creativecommons.org/ns#Reproduction"/>
        <cc:permits rdf:resource="http://creativecommons.org/ns#Distribution"/>
        <cc:permits rdf:resource="http://creativecommons.org/ns#DerivativeWorks"/>
      </cc:License>
    </rdf:RDF>
  </metadata>
</svg>
